<?xml version="1.0" encoding="utf-8"?>
<svg xmlns="http://www.w3.org/2000/svg" xmlns:xlink="http://www.w3.org/1999/xlink" width="600" height="400" viewBox="0 0 2400 1600">
<defs>
  <clipPath id="clip490">
    <rect x="0" y="0" width="2400" height="1600"/>
  </clipPath>
</defs>
<path clip-path="url(#clip490)" d="
M0 1600 L2400 1600 L2400 0 L0 0  Z
  " fill="#ffffff" fill-rule="evenodd" fill-opacity="1"/>
<defs>
  <clipPath id="clip491">
    <rect x="480" y="0" width="1681" height="1600"/>
  </clipPath>
</defs>
<path clip-path="url(#clip490)" d="
M276.876 1423.18 L2352.76 1423.18 L2352.76 123.472 L276.876 123.472  Z
  " fill="#ffffff" fill-rule="evenodd" fill-opacity="1"/>
<defs>
  <clipPath id="clip492">
    <rect x="276" y="123" width="2077" height="1301"/>
  </clipPath>
</defs>
<polyline clip-path="url(#clip492)" style="stroke:#000000; stroke-linecap:butt; stroke-linejoin:round; stroke-width:2; stroke-opacity:0.1; fill:none" points="
  276.876,1423.18 276.876,123.472 
  "/>
<polyline clip-path="url(#clip492)" style="stroke:#000000; stroke-linecap:butt; stroke-linejoin:round; stroke-width:2; stroke-opacity:0.1; fill:none" points="
  925.588,1423.18 925.588,123.472 
  "/>
<polyline clip-path="url(#clip492)" style="stroke:#000000; stroke-linecap:butt; stroke-linejoin:round; stroke-width:2; stroke-opacity:0.1; fill:none" points="
  1574.3,1423.18 1574.3,123.472 
  "/>
<polyline clip-path="url(#clip492)" style="stroke:#000000; stroke-linecap:butt; stroke-linejoin:round; stroke-width:2; stroke-opacity:0.1; fill:none" points="
  2223.01,1423.18 2223.01,123.472 
  "/>
<polyline clip-path="url(#clip490)" style="stroke:#000000; stroke-linecap:butt; stroke-linejoin:round; stroke-width:4; stroke-opacity:1; fill:none" points="
  276.876,1423.18 2352.76,1423.18 
  "/>
<polyline clip-path="url(#clip490)" style="stroke:#000000; stroke-linecap:butt; stroke-linejoin:round; stroke-width:4; stroke-opacity:1; fill:none" points="
  276.876,1423.18 276.876,1404.28 
  "/>
<polyline clip-path="url(#clip490)" style="stroke:#000000; stroke-linecap:butt; stroke-linejoin:round; stroke-width:4; stroke-opacity:1; fill:none" points="
  925.588,1423.18 925.588,1404.28 
  "/>
<polyline clip-path="url(#clip490)" style="stroke:#000000; stroke-linecap:butt; stroke-linejoin:round; stroke-width:4; stroke-opacity:1; fill:none" points="
  1574.3,1423.18 1574.3,1404.28 
  "/>
<polyline clip-path="url(#clip490)" style="stroke:#000000; stroke-linecap:butt; stroke-linejoin:round; stroke-width:4; stroke-opacity:1; fill:none" points="
  2223.01,1423.18 2223.01,1404.28 
  "/>
<path clip-path="url(#clip490)" d="M276.876 1452.37 Q273.264 1452.37 271.436 1455.94 Q269.63 1459.48 269.63 1466.61 Q269.63 1473.71 271.436 1477.28 Q273.264 1480.82 276.876 1480.82 Q280.51 1480.82 282.315 1477.28 Q284.144 1473.71 284.144 1466.61 Q284.144 1459.48 282.315 1455.94 Q280.51 1452.37 276.876 1452.37 M276.876 1448.67 Q282.686 1448.67 285.741 1453.27 Q288.82 1457.86 288.82 1466.61 Q288.82 1475.33 285.741 1479.94 Q282.686 1484.52 276.876 1484.52 Q271.065 1484.52 267.987 1479.94 Q264.931 1475.33 264.931 1466.61 Q264.931 1457.86 267.987 1453.27 Q271.065 1448.67 276.876 1448.67 Z" fill="#000000" fill-rule="evenodd" fill-opacity="1" /><path clip-path="url(#clip490)" d="M900.276 1479.92 L907.915 1479.92 L907.915 1453.55 L899.604 1455.22 L899.604 1450.96 L907.868 1449.29 L912.544 1449.29 L912.544 1479.92 L920.183 1479.92 L920.183 1483.85 L900.276 1483.85 L900.276 1479.92 Z" fill="#000000" fill-rule="evenodd" fill-opacity="1" /><path clip-path="url(#clip490)" d="M939.627 1452.37 Q936.016 1452.37 934.188 1455.94 Q932.382 1459.48 932.382 1466.61 Q932.382 1473.71 934.188 1477.28 Q936.016 1480.82 939.627 1480.82 Q943.262 1480.82 945.067 1477.28 Q946.896 1473.71 946.896 1466.61 Q946.896 1459.48 945.067 1455.94 Q943.262 1452.37 939.627 1452.37 M939.627 1448.67 Q945.438 1448.67 948.493 1453.27 Q951.572 1457.86 951.572 1466.61 Q951.572 1475.33 948.493 1479.94 Q945.438 1484.52 939.627 1484.52 Q933.817 1484.52 930.739 1479.94 Q927.683 1475.33 927.683 1466.61 Q927.683 1457.86 930.739 1453.27 Q933.817 1448.67 939.627 1448.67 Z" fill="#000000" fill-rule="evenodd" fill-opacity="1" /><path clip-path="url(#clip490)" d="M1553.07 1479.92 L1569.39 1479.92 L1569.39 1483.85 L1547.45 1483.85 L1547.45 1479.92 Q1550.11 1477.16 1554.69 1472.53 Q1559.3 1467.88 1560.48 1466.54 Q1562.73 1464.01 1563.61 1462.28 Q1564.51 1460.52 1564.51 1458.83 Q1564.51 1456.07 1562.56 1454.34 Q1560.64 1452.6 1557.54 1452.6 Q1555.34 1452.6 1552.89 1453.37 Q1550.46 1454.13 1547.68 1455.68 L1547.68 1450.96 Q1550.5 1449.82 1552.96 1449.25 Q1555.41 1448.67 1557.45 1448.67 Q1562.82 1448.67 1566.01 1451.35 Q1569.21 1454.04 1569.21 1458.53 Q1569.21 1460.66 1568.4 1462.58 Q1567.61 1464.48 1565.5 1467.07 Q1564.93 1467.74 1561.82 1470.96 Q1558.72 1474.15 1553.07 1479.92 Z" fill="#000000" fill-rule="evenodd" fill-opacity="1" /><path clip-path="url(#clip490)" d="M1589.21 1452.37 Q1585.6 1452.37 1583.77 1455.94 Q1581.96 1459.48 1581.96 1466.61 Q1581.96 1473.71 1583.77 1477.28 Q1585.6 1480.82 1589.21 1480.82 Q1592.84 1480.82 1594.65 1477.28 Q1596.48 1473.71 1596.48 1466.61 Q1596.48 1459.48 1594.65 1455.94 Q1592.84 1452.37 1589.21 1452.37 M1589.21 1448.67 Q1595.02 1448.67 1598.07 1453.27 Q1601.15 1457.86 1601.15 1466.61 Q1601.15 1475.33 1598.07 1479.94 Q1595.02 1484.52 1589.21 1484.52 Q1583.4 1484.52 1580.32 1479.94 Q1577.26 1475.33 1577.26 1466.61 Q1577.26 1457.86 1580.32 1453.27 Q1583.4 1448.67 1589.21 1448.67 Z" fill="#000000" fill-rule="evenodd" fill-opacity="1" /><path clip-path="url(#clip490)" d="M2211.86 1465.22 Q2215.21 1465.94 2217.09 1468.2 Q2218.99 1470.47 2218.99 1473.81 Q2218.99 1478.92 2215.47 1481.72 Q2211.95 1484.52 2205.47 1484.52 Q2203.29 1484.52 2200.98 1484.08 Q2198.68 1483.67 2196.23 1482.81 L2196.23 1478.3 Q2198.18 1479.43 2200.49 1480.01 Q2202.81 1480.59 2205.33 1480.59 Q2209.73 1480.59 2212.02 1478.85 Q2214.33 1477.12 2214.33 1473.81 Q2214.33 1470.75 2212.18 1469.04 Q2210.05 1467.3 2206.23 1467.3 L2202.2 1467.3 L2202.2 1463.46 L2206.42 1463.46 Q2209.87 1463.46 2211.69 1462.09 Q2213.52 1460.7 2213.52 1458.11 Q2213.52 1455.45 2211.62 1454.04 Q2209.75 1452.6 2206.23 1452.6 Q2204.31 1452.6 2202.11 1453.02 Q2199.91 1453.44 2197.27 1454.31 L2197.27 1450.15 Q2199.93 1449.41 2202.25 1449.04 Q2204.59 1448.67 2206.65 1448.67 Q2211.97 1448.67 2215.07 1451.1 Q2218.18 1453.5 2218.18 1457.63 Q2218.18 1460.5 2216.53 1462.49 Q2214.89 1464.45 2211.86 1465.22 Z" fill="#000000" fill-rule="evenodd" fill-opacity="1" /><path clip-path="url(#clip490)" d="M2237.85 1452.37 Q2234.24 1452.37 2232.41 1455.94 Q2230.61 1459.48 2230.61 1466.61 Q2230.61 1473.71 2232.41 1477.28 Q2234.24 1480.82 2237.85 1480.82 Q2241.49 1480.82 2243.29 1477.28 Q2245.12 1473.71 2245.12 1466.61 Q2245.12 1459.48 2243.29 1455.94 Q2241.49 1452.37 2237.85 1452.37 M2237.85 1448.67 Q2243.66 1448.67 2246.72 1453.27 Q2249.8 1457.86 2249.8 1466.61 Q2249.8 1475.33 2246.72 1479.94 Q2243.66 1484.52 2237.85 1484.52 Q2232.04 1484.52 2228.96 1479.94 Q2225.91 1475.33 2225.91 1466.61 Q2225.91 1457.86 2228.96 1453.27 Q2232.04 1448.67 2237.85 1448.67 Z" fill="#000000" fill-rule="evenodd" fill-opacity="1" /><path clip-path="url(#clip490)" d="M694.478 1520.52 L700.907 1520.52 L700.907 1568.04 L694.478 1568.04 L694.478 1520.52 Z" fill="#000000" fill-rule="evenodd" fill-opacity="1" /><path clip-path="url(#clip490)" d="M719.24 1522.27 L719.24 1532.4 L731.303 1532.4 L731.303 1536.95 L719.24 1536.95 L719.24 1556.3 Q719.24 1560.66 720.418 1561.9 Q721.627 1563.14 725.288 1563.14 L731.303 1563.14 L731.303 1568.04 L725.288 1568.04 Q718.508 1568.04 715.93 1565.53 Q713.352 1562.98 713.352 1556.3 L713.352 1536.95 L709.055 1536.95 L709.055 1532.4 L713.352 1532.4 L713.352 1522.27 L719.24 1522.27 Z" fill="#000000" fill-rule="evenodd" fill-opacity="1" /><path clip-path="url(#clip490)" d="M769.497 1548.76 L769.497 1551.62 L742.571 1551.62 Q742.952 1557.67 746.199 1560.85 Q749.477 1564 755.302 1564 Q758.676 1564 761.827 1563.17 Q765.01 1562.35 768.129 1560.69 L768.129 1566.23 Q764.978 1567.57 761.668 1568.27 Q758.357 1568.97 754.952 1568.97 Q746.422 1568.97 741.425 1564 Q736.459 1559.04 736.459 1550.57 Q736.459 1541.82 741.17 1536.69 Q745.913 1531.54 753.933 1531.54 Q761.127 1531.54 765.296 1536.18 Q769.497 1540.8 769.497 1548.76 M763.641 1547.04 Q763.577 1542.23 760.936 1539.37 Q758.326 1536.5 753.997 1536.5 Q749.095 1536.5 746.135 1539.27 Q743.207 1542.04 742.761 1547.07 L763.641 1547.04 Z" fill="#000000" fill-rule="evenodd" fill-opacity="1" /><path clip-path="url(#clip490)" d="M799.766 1537.87 Q798.78 1537.3 797.602 1537.04 Q796.456 1536.76 795.056 1536.76 Q790.091 1536.76 787.417 1540 Q784.775 1543.22 784.775 1549.27 L784.775 1568.04 L778.887 1568.04 L778.887 1532.4 L784.775 1532.4 L784.775 1537.93 Q786.621 1534.69 789.581 1533.13 Q792.541 1531.54 796.775 1531.54 Q797.379 1531.54 798.111 1531.63 Q798.843 1531.7 799.735 1531.85 L799.766 1537.87 Z" fill="#000000" fill-rule="evenodd" fill-opacity="1" /><path clip-path="url(#clip490)" d="M822.11 1550.12 Q815.012 1550.12 812.275 1551.75 Q809.538 1553.37 809.538 1557.29 Q809.538 1560.4 811.575 1562.25 Q813.644 1564.07 817.177 1564.07 Q822.046 1564.07 824.975 1560.63 Q827.935 1557.16 827.935 1551.43 L827.935 1550.12 L822.11 1550.12 M833.791 1547.71 L833.791 1568.04 L827.935 1568.04 L827.935 1562.63 Q825.929 1565.88 822.938 1567.44 Q819.946 1568.97 815.617 1568.97 Q810.142 1568.97 806.896 1565.91 Q803.681 1562.82 803.681 1557.67 Q803.681 1551.65 807.692 1548.6 Q811.734 1545.54 819.723 1545.54 L827.935 1545.54 L827.935 1544.97 Q827.935 1540.93 825.261 1538.73 Q822.619 1536.5 817.813 1536.5 Q814.758 1536.5 811.861 1537.23 Q808.965 1537.97 806.291 1539.43 L806.291 1534.02 Q809.506 1532.78 812.53 1532.17 Q815.553 1531.54 818.418 1531.54 Q826.152 1531.54 829.972 1535.55 Q833.791 1539.56 833.791 1547.71 Z" fill="#000000" fill-rule="evenodd" fill-opacity="1" /><path clip-path="url(#clip490)" d="M851.647 1522.27 L851.647 1532.4 L863.71 1532.4 L863.71 1536.95 L851.647 1536.95 L851.647 1556.3 Q851.647 1560.66 852.825 1561.9 Q854.034 1563.14 857.694 1563.14 L863.71 1563.14 L863.71 1568.04 L857.694 1568.04 Q850.915 1568.04 848.337 1565.53 Q845.759 1562.98 845.759 1556.3 L845.759 1536.95 L841.462 1536.95 L841.462 1532.4 L845.759 1532.4 L845.759 1522.27 L851.647 1522.27 Z" fill="#000000" fill-rule="evenodd" fill-opacity="1" /><path clip-path="url(#clip490)" d="M871.412 1532.4 L877.269 1532.4 L877.269 1568.04 L871.412 1568.04 L871.412 1532.4 M871.412 1518.52 L877.269 1518.52 L877.269 1525.93 L871.412 1525.93 L871.412 1518.52 Z" fill="#000000" fill-rule="evenodd" fill-opacity="1" /><path clip-path="url(#clip490)" d="M903.336 1536.5 Q898.626 1536.5 895.889 1540.19 Q893.151 1543.85 893.151 1550.25 Q893.151 1556.65 895.857 1560.34 Q898.594 1564 903.336 1564 Q908.015 1564 910.752 1560.31 Q913.49 1556.62 913.49 1550.25 Q913.49 1543.92 910.752 1540.23 Q908.015 1536.5 903.336 1536.5 M903.336 1531.54 Q910.975 1531.54 915.336 1536.5 Q919.696 1541.47 919.696 1550.25 Q919.696 1559 915.336 1564 Q910.975 1568.97 903.336 1568.97 Q895.666 1568.97 891.305 1564 Q886.977 1559 886.977 1550.25 Q886.977 1541.47 891.305 1536.5 Q895.666 1531.54 903.336 1531.54 Z" fill="#000000" fill-rule="evenodd" fill-opacity="1" /><path clip-path="url(#clip490)" d="M959.036 1546.53 L959.036 1568.04 L953.18 1568.04 L953.18 1546.72 Q953.18 1541.66 951.207 1539.14 Q949.233 1536.63 945.286 1536.63 Q940.544 1536.63 937.807 1539.65 Q935.069 1542.68 935.069 1547.9 L935.069 1568.04 L929.181 1568.04 L929.181 1532.4 L935.069 1532.4 L935.069 1537.93 Q937.17 1534.72 940.003 1533.13 Q942.867 1531.54 946.591 1531.54 Q952.734 1531.54 955.885 1535.36 Q959.036 1539.14 959.036 1546.53 Z" fill="#000000" fill-rule="evenodd" fill-opacity="1" /><path clip-path="url(#clip490)" d="M1001.85 1520.52 L1007.26 1520.52 L990.706 1574.09 L985.295 1574.09 L1001.85 1520.52 Z" fill="#000000" fill-rule="evenodd" fill-opacity="1" /><path clip-path="url(#clip490)" d="M1034.37 1520.52 L1040.8 1520.52 L1040.8 1540 L1064.17 1540 L1064.17 1520.52 L1070.6 1520.52 L1070.6 1568.04 L1064.17 1568.04 L1064.17 1545.41 L1040.8 1545.41 L1040.8 1568.04 L1034.37 1568.04 L1034.37 1520.52 Z" fill="#000000" fill-rule="evenodd" fill-opacity="1" /><path clip-path="url(#clip490)" d="M1099.34 1550.12 Q1092.24 1550.12 1089.5 1551.75 Q1086.76 1553.37 1086.76 1557.29 Q1086.76 1560.4 1088.8 1562.25 Q1090.87 1564.07 1094.4 1564.07 Q1099.27 1564.07 1102.2 1560.63 Q1105.16 1557.16 1105.16 1551.43 L1105.16 1550.12 L1099.34 1550.12 M1111.02 1547.71 L1111.02 1568.04 L1105.16 1568.04 L1105.16 1562.63 Q1103.16 1565.88 1100.16 1567.44 Q1097.17 1568.97 1092.84 1568.97 Q1087.37 1568.97 1084.12 1565.91 Q1080.91 1562.82 1080.91 1557.67 Q1080.91 1551.65 1084.92 1548.6 Q1088.96 1545.54 1096.95 1545.54 L1105.16 1545.54 L1105.16 1544.97 Q1105.16 1540.93 1102.49 1538.73 Q1099.85 1536.5 1095.04 1536.5 Q1091.98 1536.5 1089.09 1537.23 Q1086.19 1537.97 1083.52 1539.43 L1083.52 1534.02 Q1086.73 1532.78 1089.76 1532.17 Q1092.78 1531.54 1095.64 1531.54 Q1103.38 1531.54 1107.2 1535.55 Q1111.02 1539.56 1111.02 1547.71 Z" fill="#000000" fill-rule="evenodd" fill-opacity="1" /><path clip-path="url(#clip490)" d="M1150.84 1539.24 Q1153.03 1535.29 1156.09 1533.41 Q1159.14 1531.54 1163.28 1531.54 Q1168.85 1531.54 1171.87 1535.45 Q1174.9 1539.33 1174.9 1546.53 L1174.9 1568.04 L1169.01 1568.04 L1169.01 1546.72 Q1169.01 1541.59 1167.19 1539.11 Q1165.38 1536.63 1161.66 1536.63 Q1157.11 1536.63 1154.46 1539.65 Q1151.82 1542.68 1151.82 1547.9 L1151.82 1568.04 L1145.93 1568.04 L1145.93 1546.72 Q1145.93 1541.56 1144.12 1539.11 Q1142.31 1536.63 1138.52 1536.63 Q1134.03 1536.63 1131.39 1539.68 Q1128.75 1542.71 1128.75 1547.9 L1128.75 1568.04 L1122.86 1568.04 L1122.86 1532.4 L1128.75 1532.4 L1128.75 1537.93 Q1130.75 1534.66 1133.55 1533.1 Q1136.35 1531.54 1140.2 1531.54 Q1144.09 1531.54 1146.79 1533.51 Q1149.53 1535.48 1150.84 1539.24 Z" fill="#000000" fill-rule="evenodd" fill-opacity="1" /><path clip-path="url(#clip490)" d="M1186.58 1532.4 L1192.43 1532.4 L1192.43 1568.04 L1186.58 1568.04 L1186.58 1532.4 M1186.58 1518.52 L1192.43 1518.52 L1192.43 1525.93 L1186.58 1525.93 L1186.58 1518.52 Z" fill="#000000" fill-rule="evenodd" fill-opacity="1" /><path clip-path="url(#clip490)" d="M1204.69 1518.52 L1210.55 1518.52 L1210.55 1568.04 L1204.69 1568.04 L1204.69 1518.52 Z" fill="#000000" fill-rule="evenodd" fill-opacity="1" /><path clip-path="url(#clip490)" d="M1228.59 1522.27 L1228.59 1532.4 L1240.66 1532.4 L1240.66 1536.95 L1228.59 1536.95 L1228.59 1556.3 Q1228.59 1560.66 1229.77 1561.9 Q1230.98 1563.14 1234.64 1563.14 L1240.66 1563.14 L1240.66 1568.04 L1234.64 1568.04 Q1227.86 1568.04 1225.28 1565.53 Q1222.7 1562.98 1222.7 1556.3 L1222.7 1536.95 L1218.41 1536.95 L1218.41 1532.4 L1222.7 1532.4 L1222.7 1522.27 L1228.59 1522.27 Z" fill="#000000" fill-rule="evenodd" fill-opacity="1" /><path clip-path="url(#clip490)" d="M1262.17 1536.5 Q1257.46 1536.5 1254.72 1540.19 Q1251.99 1543.85 1251.99 1550.25 Q1251.99 1556.65 1254.69 1560.34 Q1257.43 1564 1262.17 1564 Q1266.85 1564 1269.59 1560.31 Q1272.32 1556.62 1272.32 1550.25 Q1272.32 1543.92 1269.59 1540.23 Q1266.85 1536.5 1262.17 1536.5 M1262.17 1531.54 Q1269.81 1531.54 1274.17 1536.5 Q1278.53 1541.47 1278.53 1550.25 Q1278.53 1559 1274.17 1564 Q1269.81 1568.97 1262.17 1568.97 Q1254.5 1568.97 1250.14 1564 Q1245.81 1559 1245.81 1550.25 Q1245.81 1541.47 1250.14 1536.5 Q1254.5 1531.54 1262.17 1531.54 Z" fill="#000000" fill-rule="evenodd" fill-opacity="1" /><path clip-path="url(#clip490)" d="M1317.87 1546.53 L1317.87 1568.04 L1312.01 1568.04 L1312.01 1546.72 Q1312.01 1541.66 1310.04 1539.14 Q1308.07 1536.63 1304.12 1536.63 Q1299.38 1536.63 1296.64 1539.65 Q1293.9 1542.68 1293.9 1547.9 L1293.9 1568.04 L1288.02 1568.04 L1288.02 1532.4 L1293.9 1532.4 L1293.9 1537.93 Q1296.01 1534.72 1298.84 1533.13 Q1301.7 1531.54 1305.43 1531.54 Q1311.57 1531.54 1314.72 1535.36 Q1317.87 1539.14 1317.87 1546.53 Z" fill="#000000" fill-rule="evenodd" fill-opacity="1" /><path clip-path="url(#clip490)" d="M1329.55 1532.4 L1335.41 1532.4 L1335.41 1568.04 L1329.55 1568.04 L1329.55 1532.4 M1329.55 1518.52 L1335.41 1518.52 L1335.41 1525.93 L1329.55 1525.93 L1329.55 1518.52 Z" fill="#000000" fill-rule="evenodd" fill-opacity="1" /><path clip-path="url(#clip490)" d="M1363.86 1550.12 Q1356.77 1550.12 1354.03 1551.75 Q1351.29 1553.37 1351.29 1557.29 Q1351.29 1560.4 1353.33 1562.25 Q1355.4 1564.07 1358.93 1564.07 Q1363.8 1564.07 1366.73 1560.63 Q1369.69 1557.16 1369.69 1551.43 L1369.69 1550.12 L1363.86 1550.12 M1375.54 1547.71 L1375.54 1568.04 L1369.69 1568.04 L1369.69 1562.63 Q1367.68 1565.88 1364.69 1567.44 Q1361.7 1568.97 1357.37 1568.97 Q1351.9 1568.97 1348.65 1565.91 Q1345.43 1562.82 1345.43 1557.67 Q1345.43 1551.65 1349.45 1548.6 Q1353.49 1545.54 1361.48 1545.54 L1369.69 1545.54 L1369.69 1544.97 Q1369.69 1540.93 1367.01 1538.73 Q1364.37 1536.5 1359.57 1536.5 Q1356.51 1536.5 1353.61 1537.23 Q1350.72 1537.97 1348.04 1539.43 L1348.04 1534.02 Q1351.26 1532.78 1354.28 1532.17 Q1357.31 1531.54 1360.17 1531.54 Q1367.91 1531.54 1371.73 1535.55 Q1375.54 1539.56 1375.54 1547.71 Z" fill="#000000" fill-rule="evenodd" fill-opacity="1" /><path clip-path="url(#clip490)" d="M1417.24 1546.53 L1417.24 1568.04 L1411.38 1568.04 L1411.38 1546.72 Q1411.38 1541.66 1409.41 1539.14 Q1407.44 1536.63 1403.49 1536.63 Q1398.75 1536.63 1396.01 1539.65 Q1393.27 1542.68 1393.27 1547.9 L1393.27 1568.04 L1387.38 1568.04 L1387.38 1532.4 L1393.27 1532.4 L1393.27 1537.93 Q1395.37 1534.72 1398.21 1533.13 Q1401.07 1531.54 1404.79 1531.54 Q1410.94 1531.54 1414.09 1535.36 Q1417.24 1539.14 1417.24 1546.53 Z" fill="#000000" fill-rule="evenodd" fill-opacity="1" /><path clip-path="url(#clip490)" d="M1473.1 1537.81 L1473.1 1518.52 L1478.96 1518.52 L1478.96 1568.04 L1473.1 1568.04 L1473.1 1562.7 Q1471.25 1565.88 1468.42 1567.44 Q1465.62 1568.97 1461.67 1568.97 Q1455.21 1568.97 1451.14 1563.81 Q1447.1 1558.65 1447.1 1550.25 Q1447.1 1541.85 1451.14 1536.69 Q1455.21 1531.54 1461.67 1531.54 Q1465.62 1531.54 1468.42 1533.1 Q1471.25 1534.62 1473.1 1537.81 M1453.14 1550.25 Q1453.14 1556.71 1455.78 1560.4 Q1458.46 1564.07 1463.1 1564.07 Q1467.75 1564.07 1470.43 1560.4 Q1473.1 1556.71 1473.1 1550.25 Q1473.1 1543.79 1470.43 1540.13 Q1467.75 1536.44 1463.1 1536.44 Q1458.46 1536.44 1455.78 1540.13 Q1453.14 1543.79 1453.14 1550.25 Z" fill="#000000" fill-rule="evenodd" fill-opacity="1" /><path clip-path="url(#clip490)" d="M1491.02 1532.4 L1496.87 1532.4 L1496.87 1568.04 L1491.02 1568.04 L1491.02 1532.4 M1491.02 1518.52 L1496.87 1518.52 L1496.87 1525.93 L1491.02 1525.93 L1491.02 1518.52 Z" fill="#000000" fill-rule="evenodd" fill-opacity="1" /><path clip-path="url(#clip490)" d="M1525.33 1550.12 Q1518.23 1550.12 1515.49 1551.75 Q1512.76 1553.37 1512.76 1557.29 Q1512.76 1560.4 1514.79 1562.25 Q1516.86 1564.07 1520.4 1564.07 Q1525.27 1564.07 1528.19 1560.63 Q1531.15 1557.16 1531.15 1551.43 L1531.15 1550.12 L1525.33 1550.12 M1537.01 1547.71 L1537.01 1568.04 L1531.15 1568.04 L1531.15 1562.63 Q1529.15 1565.88 1526.16 1567.44 Q1523.17 1568.97 1518.84 1568.97 Q1513.36 1568.97 1510.12 1565.91 Q1506.9 1562.82 1506.9 1557.67 Q1506.9 1551.65 1510.91 1548.6 Q1514.95 1545.54 1522.94 1545.54 L1531.15 1545.54 L1531.15 1544.97 Q1531.15 1540.93 1528.48 1538.73 Q1525.84 1536.5 1521.03 1536.5 Q1517.98 1536.5 1515.08 1537.23 Q1512.18 1537.97 1509.51 1539.43 L1509.51 1534.02 Q1512.73 1532.78 1515.75 1532.17 Q1518.77 1531.54 1521.64 1531.54 Q1529.37 1531.54 1533.19 1535.55 Q1537.01 1539.56 1537.01 1547.71 Z" fill="#000000" fill-rule="evenodd" fill-opacity="1" /><path clip-path="url(#clip490)" d="M1572.53 1549.81 Q1572.53 1543.44 1569.89 1539.94 Q1567.28 1536.44 1562.54 1536.44 Q1557.83 1536.44 1555.18 1539.94 Q1552.57 1543.44 1552.57 1549.81 Q1552.57 1556.14 1555.18 1559.64 Q1557.83 1563.14 1562.54 1563.14 Q1567.28 1563.14 1569.89 1559.64 Q1572.53 1556.14 1572.53 1549.81 M1578.39 1563.62 Q1578.39 1572.72 1574.35 1577.15 Q1570.3 1581.6 1561.96 1581.6 Q1558.88 1581.6 1556.14 1581.13 Q1553.4 1580.68 1550.82 1579.72 L1550.82 1574.03 Q1553.4 1575.43 1555.92 1576.1 Q1558.43 1576.76 1561.04 1576.76 Q1566.8 1576.76 1569.67 1573.74 Q1572.53 1570.75 1572.53 1564.67 L1572.53 1561.77 Q1570.72 1564.92 1567.88 1566.48 Q1565.05 1568.04 1561.1 1568.04 Q1554.55 1568.04 1550.54 1563.05 Q1546.53 1558.05 1546.53 1549.81 Q1546.53 1541.53 1550.54 1536.53 Q1554.55 1531.54 1561.1 1531.54 Q1565.05 1531.54 1567.88 1533.1 Q1570.72 1534.66 1572.53 1537.81 L1572.53 1532.4 L1578.39 1532.4 L1578.39 1563.62 Z" fill="#000000" fill-rule="evenodd" fill-opacity="1" /><path clip-path="url(#clip490)" d="M1604.26 1536.5 Q1599.55 1536.5 1596.82 1540.19 Q1594.08 1543.85 1594.08 1550.25 Q1594.08 1556.65 1596.78 1560.34 Q1599.52 1564 1604.26 1564 Q1608.94 1564 1611.68 1560.31 Q1614.42 1556.62 1614.42 1550.25 Q1614.42 1543.92 1611.68 1540.23 Q1608.94 1536.5 1604.26 1536.5 M1604.26 1531.54 Q1611.9 1531.54 1616.26 1536.5 Q1620.62 1541.47 1620.62 1550.25 Q1620.62 1559 1616.26 1564 Q1611.9 1568.97 1604.26 1568.97 Q1596.59 1568.97 1592.23 1564 Q1587.9 1559 1587.9 1550.25 Q1587.9 1541.47 1592.23 1536.5 Q1596.59 1531.54 1604.26 1531.54 Z" fill="#000000" fill-rule="evenodd" fill-opacity="1" /><path clip-path="url(#clip490)" d="M1659.96 1546.53 L1659.96 1568.04 L1654.11 1568.04 L1654.11 1546.72 Q1654.11 1541.66 1652.13 1539.14 Q1650.16 1536.63 1646.21 1536.63 Q1641.47 1536.63 1638.73 1539.65 Q1636 1542.68 1636 1547.9 L1636 1568.04 L1630.11 1568.04 L1630.11 1532.4 L1636 1532.4 L1636 1537.93 Q1638.1 1534.72 1640.93 1533.13 Q1643.8 1531.54 1647.52 1531.54 Q1653.66 1531.54 1656.81 1535.36 Q1659.96 1539.14 1659.96 1546.53 Z" fill="#000000" fill-rule="evenodd" fill-opacity="1" /><path clip-path="url(#clip490)" d="M1687.85 1550.12 Q1680.75 1550.12 1678.01 1551.75 Q1675.27 1553.37 1675.27 1557.29 Q1675.27 1560.4 1677.31 1562.25 Q1679.38 1564.07 1682.91 1564.07 Q1687.78 1564.07 1690.71 1560.63 Q1693.67 1557.16 1693.67 1551.43 L1693.67 1550.12 L1687.85 1550.12 M1699.53 1547.71 L1699.53 1568.04 L1693.67 1568.04 L1693.67 1562.63 Q1691.67 1565.88 1688.67 1567.44 Q1685.68 1568.97 1681.35 1568.97 Q1675.88 1568.97 1672.63 1565.91 Q1669.42 1562.82 1669.42 1557.67 Q1669.42 1551.65 1673.43 1548.6 Q1677.47 1545.54 1685.46 1545.54 L1693.67 1545.54 L1693.67 1544.97 Q1693.67 1540.93 1691 1538.73 Q1688.36 1536.5 1683.55 1536.5 Q1680.49 1536.5 1677.6 1537.23 Q1674.7 1537.97 1672.03 1539.43 L1672.03 1534.02 Q1675.24 1532.78 1678.27 1532.17 Q1681.29 1531.54 1684.15 1531.54 Q1691.89 1531.54 1695.71 1535.55 Q1699.53 1539.56 1699.53 1547.71 Z" fill="#000000" fill-rule="evenodd" fill-opacity="1" /><path clip-path="url(#clip490)" d="M1711.59 1518.52 L1717.45 1518.52 L1717.45 1568.04 L1711.59 1568.04 L1711.59 1518.52 Z" fill="#000000" fill-rule="evenodd" fill-opacity="1" /><path clip-path="url(#clip490)" d="M1729.7 1532.4 L1735.56 1532.4 L1735.56 1568.04 L1729.7 1568.04 L1729.7 1532.4 M1729.7 1518.52 L1735.56 1518.52 L1735.56 1525.93 L1729.7 1525.93 L1729.7 1518.52 Z" fill="#000000" fill-rule="evenodd" fill-opacity="1" /><path clip-path="url(#clip490)" d="M1745.26 1532.4 L1773.08 1532.4 L1773.08 1537.74 L1751.06 1563.37 L1773.08 1563.37 L1773.08 1568.04 L1744.47 1568.04 L1744.47 1562.7 L1766.49 1537.07 L1745.26 1537.07 L1745.26 1532.4 Z" fill="#000000" fill-rule="evenodd" fill-opacity="1" /><path clip-path="url(#clip490)" d="M1798.23 1550.12 Q1791.13 1550.12 1788.39 1551.75 Q1785.66 1553.37 1785.66 1557.29 Q1785.66 1560.4 1787.69 1562.25 Q1789.76 1564.07 1793.29 1564.07 Q1798.16 1564.07 1801.09 1560.63 Q1804.05 1557.16 1804.05 1551.43 L1804.05 1550.12 L1798.23 1550.12 M1809.91 1547.71 L1809.91 1568.04 L1804.05 1568.04 L1804.05 1562.63 Q1802.05 1565.88 1799.06 1567.44 Q1796.06 1568.97 1791.73 1568.97 Q1786.26 1568.97 1783.01 1565.91 Q1779.8 1562.82 1779.8 1557.67 Q1779.8 1551.65 1783.81 1548.6 Q1787.85 1545.54 1795.84 1545.54 L1804.05 1545.54 L1804.05 1544.97 Q1804.05 1540.93 1801.38 1538.73 Q1798.74 1536.5 1793.93 1536.5 Q1790.88 1536.5 1787.98 1537.23 Q1785.08 1537.97 1782.41 1539.43 L1782.41 1534.02 Q1785.62 1532.78 1788.65 1532.17 Q1791.67 1531.54 1794.54 1531.54 Q1802.27 1531.54 1806.09 1535.55 Q1809.91 1539.56 1809.91 1547.71 Z" fill="#000000" fill-rule="evenodd" fill-opacity="1" /><path clip-path="url(#clip490)" d="M1827.76 1522.27 L1827.76 1532.4 L1839.83 1532.4 L1839.83 1536.95 L1827.76 1536.95 L1827.76 1556.3 Q1827.76 1560.66 1828.94 1561.9 Q1830.15 1563.14 1833.81 1563.14 L1839.83 1563.14 L1839.83 1568.04 L1833.81 1568.04 Q1827.03 1568.04 1824.45 1565.53 Q1821.88 1562.98 1821.88 1556.3 L1821.88 1536.95 L1817.58 1536.95 L1817.58 1532.4 L1821.88 1532.4 L1821.88 1522.27 L1827.76 1522.27 Z" fill="#000000" fill-rule="evenodd" fill-opacity="1" /><path clip-path="url(#clip490)" d="M1847.53 1532.4 L1853.39 1532.4 L1853.39 1568.04 L1847.53 1568.04 L1847.53 1532.4 M1847.53 1518.52 L1853.39 1518.52 L1853.39 1525.93 L1847.53 1525.93 L1847.53 1518.52 Z" fill="#000000" fill-rule="evenodd" fill-opacity="1" /><path clip-path="url(#clip490)" d="M1879.45 1536.5 Q1874.74 1536.5 1872.01 1540.19 Q1869.27 1543.85 1869.27 1550.25 Q1869.27 1556.65 1871.97 1560.34 Q1874.71 1564 1879.45 1564 Q1884.13 1564 1886.87 1560.31 Q1889.61 1556.62 1889.61 1550.25 Q1889.61 1543.92 1886.87 1540.23 Q1884.13 1536.5 1879.45 1536.5 M1879.45 1531.54 Q1887.09 1531.54 1891.45 1536.5 Q1895.81 1541.47 1895.81 1550.25 Q1895.81 1559 1891.45 1564 Q1887.09 1568.97 1879.45 1568.97 Q1871.78 1568.97 1867.42 1564 Q1863.09 1559 1863.09 1550.25 Q1863.09 1541.47 1867.42 1536.5 Q1871.78 1531.54 1879.45 1531.54 Z" fill="#000000" fill-rule="evenodd" fill-opacity="1" /><path clip-path="url(#clip490)" d="M1935.15 1546.53 L1935.15 1568.04 L1929.3 1568.04 L1929.3 1546.72 Q1929.3 1541.66 1927.32 1539.14 Q1925.35 1536.63 1921.4 1536.63 Q1916.66 1536.63 1913.92 1539.65 Q1911.19 1542.68 1911.19 1547.9 L1911.19 1568.04 L1905.3 1568.04 L1905.3 1532.4 L1911.19 1532.4 L1911.19 1537.93 Q1913.29 1534.72 1916.12 1533.13 Q1918.98 1531.54 1922.71 1531.54 Q1928.85 1531.54 1932 1535.36 Q1935.15 1539.14 1935.15 1546.53 Z" fill="#000000" fill-rule="evenodd" fill-opacity="1" /><polyline clip-path="url(#clip492)" style="stroke:#000000; stroke-linecap:butt; stroke-linejoin:round; stroke-width:2; stroke-opacity:0.1; fill:none" points="
  276.876,1423.18 2352.76,1423.18 
  "/>
<polyline clip-path="url(#clip492)" style="stroke:#000000; stroke-linecap:butt; stroke-linejoin:round; stroke-width:2; stroke-opacity:0.1; fill:none" points="
  276.876,877.441 2352.76,877.441 
  "/>
<polyline clip-path="url(#clip492)" style="stroke:#000000; stroke-linecap:butt; stroke-linejoin:round; stroke-width:2; stroke-opacity:0.1; fill:none" points="
  276.876,331.703 2352.76,331.703 
  "/>
<polyline clip-path="url(#clip490)" style="stroke:#000000; stroke-linecap:butt; stroke-linejoin:round; stroke-width:4; stroke-opacity:1; fill:none" points="
  276.876,1423.18 276.876,123.472 
  "/>
<polyline clip-path="url(#clip490)" style="stroke:#000000; stroke-linecap:butt; stroke-linejoin:round; stroke-width:4; stroke-opacity:1; fill:none" points="
  276.876,1423.18 295.773,1423.18 
  "/>
<polyline clip-path="url(#clip490)" style="stroke:#000000; stroke-linecap:butt; stroke-linejoin:round; stroke-width:4; stroke-opacity:1; fill:none" points="
  276.876,877.441 295.773,877.441 
  "/>
<polyline clip-path="url(#clip490)" style="stroke:#000000; stroke-linecap:butt; stroke-linejoin:round; stroke-width:4; stroke-opacity:1; fill:none" points="
  276.876,331.703 295.773,331.703 
  "/>
<path clip-path="url(#clip490)" d="M114.931 1442.97 L122.57 1442.97 L122.57 1416.61 L114.26 1418.27 L114.26 1414.01 L122.524 1412.35 L127.2 1412.35 L127.2 1442.97 L134.839 1442.97 L134.839 1446.91 L114.931 1446.91 L114.931 1442.97 Z" fill="#000000" fill-rule="evenodd" fill-opacity="1" /><path clip-path="url(#clip490)" d="M154.283 1415.43 Q150.672 1415.43 148.843 1418.99 Q147.038 1422.53 147.038 1429.66 Q147.038 1436.77 148.843 1440.33 Q150.672 1443.88 154.283 1443.88 Q157.917 1443.88 159.723 1440.33 Q161.552 1436.77 161.552 1429.66 Q161.552 1422.53 159.723 1418.99 Q157.917 1415.43 154.283 1415.43 M154.283 1411.72 Q160.093 1411.72 163.149 1416.33 Q166.227 1420.91 166.227 1429.66 Q166.227 1438.39 163.149 1443 Q160.093 1447.58 154.283 1447.58 Q148.473 1447.58 145.394 1443 Q142.339 1438.39 142.339 1429.66 Q142.339 1420.91 145.394 1416.33 Q148.473 1411.72 154.283 1411.72 Z" fill="#000000" fill-rule="evenodd" fill-opacity="1" /><path clip-path="url(#clip490)" d="M166.227 1405.82 L190.339 1405.82 L190.339 1409.02 L166.227 1409.02 L166.227 1405.82 Z" fill="#000000" fill-rule="evenodd" fill-opacity="1" /><path clip-path="url(#clip490)" d="M199.197 1416.3 L205.404 1416.3 L205.404 1394.88 L198.652 1396.23 L198.652 1392.77 L205.366 1391.42 L209.166 1391.42 L209.166 1416.3 L215.372 1416.3 L215.372 1419.5 L199.197 1419.5 L199.197 1416.3 Z" fill="#000000" fill-rule="evenodd" fill-opacity="1" /><path clip-path="url(#clip490)" d="M231.171 1393.92 Q228.237 1393.92 226.751 1396.81 Q225.284 1399.69 225.284 1405.49 Q225.284 1411.26 226.751 1414.16 Q228.237 1417.03 231.171 1417.03 Q234.124 1417.03 235.591 1414.16 Q237.076 1411.26 237.076 1405.49 Q237.076 1399.69 235.591 1396.81 Q234.124 1393.92 231.171 1393.92 M231.171 1390.91 Q235.891 1390.91 238.374 1394.65 Q240.876 1398.38 240.876 1405.49 Q240.876 1412.58 238.374 1416.32 Q235.891 1420.04 231.171 1420.04 Q226.45 1420.04 223.949 1416.32 Q221.466 1412.58 221.466 1405.49 Q221.466 1398.38 223.949 1394.65 Q226.45 1390.91 231.171 1390.91 Z" fill="#000000" fill-rule="evenodd" fill-opacity="1" /><path clip-path="url(#clip490)" d="M140.247 897.234 L147.886 897.234 L147.886 870.868 L139.575 872.535 L139.575 868.276 L147.839 866.609 L152.515 866.609 L152.515 897.234 L160.154 897.234 L160.154 901.169 L140.247 901.169 L140.247 897.234 Z" fill="#000000" fill-rule="evenodd" fill-opacity="1" /><path clip-path="url(#clip490)" d="M179.598 869.688 Q175.987 869.688 174.159 873.252 Q172.353 876.794 172.353 883.924 Q172.353 891.03 174.159 894.595 Q175.987 898.137 179.598 898.137 Q183.233 898.137 185.038 894.595 Q186.867 891.03 186.867 883.924 Q186.867 876.794 185.038 873.252 Q183.233 869.688 179.598 869.688 M179.598 865.984 Q185.409 865.984 188.464 870.59 Q191.543 875.174 191.543 883.924 Q191.543 892.651 188.464 897.257 Q185.409 901.84 179.598 901.84 Q173.788 901.84 170.71 897.257 Q167.654 892.651 167.654 883.924 Q167.654 875.174 170.71 870.59 Q173.788 865.984 179.598 865.984 Z" fill="#000000" fill-rule="evenodd" fill-opacity="1" /><path clip-path="url(#clip490)" d="M191.543 860.085 L215.654 860.085 L215.654 863.283 L191.543 863.283 L191.543 860.085 Z" fill="#000000" fill-rule="evenodd" fill-opacity="1" /><path clip-path="url(#clip490)" d="M223.892 845.679 L238.807 845.679 L238.807 848.876 L227.372 848.876 L227.372 855.76 Q228.199 855.477 229.027 855.346 Q229.854 855.195 230.682 855.195 Q235.384 855.195 238.13 857.772 Q240.876 860.349 240.876 864.75 Q240.876 869.282 238.054 871.803 Q235.233 874.304 230.099 874.304 Q228.331 874.304 226.488 874.003 Q224.663 873.702 222.707 873.1 L222.707 869.282 Q224.4 870.204 226.205 870.655 Q228.011 871.107 230.023 871.107 Q233.277 871.107 235.177 869.395 Q237.076 867.684 237.076 864.75 Q237.076 861.816 235.177 860.104 Q233.277 858.393 230.023 858.393 Q228.5 858.393 226.977 858.731 Q225.472 859.07 223.892 859.784 L223.892 845.679 Z" fill="#000000" fill-rule="evenodd" fill-opacity="1" /><path clip-path="url(#clip490)" d="M170.17 351.495 L177.809 351.495 L177.809 325.13 L169.499 326.796 L169.499 322.537 L177.762 320.871 L182.438 320.871 L182.438 351.495 L190.077 351.495 L190.077 355.431 L170.17 355.431 L170.17 351.495 Z" fill="#000000" fill-rule="evenodd" fill-opacity="1" /><path clip-path="url(#clip490)" d="M209.522 323.949 Q205.91 323.949 204.082 327.514 Q202.276 331.056 202.276 338.185 Q202.276 345.292 204.082 348.857 Q205.91 352.398 209.522 352.398 Q213.156 352.398 214.961 348.857 Q216.79 345.292 216.79 338.185 Q216.79 331.056 214.961 327.514 Q213.156 323.949 209.522 323.949 M209.522 320.246 Q215.332 320.246 218.387 324.852 Q221.466 329.435 221.466 338.185 Q221.466 346.912 218.387 351.519 Q215.332 356.102 209.522 356.102 Q203.711 356.102 200.633 351.519 Q197.577 346.912 197.577 338.185 Q197.577 329.435 200.633 324.852 Q203.711 320.246 209.522 320.246 Z" fill="#000000" fill-rule="evenodd" fill-opacity="1" /><path clip-path="url(#clip490)" d="M231.171 302.442 Q228.237 302.442 226.751 305.338 Q225.284 308.216 225.284 314.008 Q225.284 319.782 226.751 322.679 Q228.237 325.556 231.171 325.556 Q234.124 325.556 235.591 322.679 Q237.076 319.782 237.076 314.008 Q237.076 308.216 235.591 305.338 Q234.124 302.442 231.171 302.442 M231.171 299.432 Q235.891 299.432 238.374 303.175 Q240.876 306.899 240.876 314.008 Q240.876 321.099 238.374 324.842 Q235.891 328.566 231.171 328.566 Q226.45 328.566 223.949 324.842 Q221.466 321.099 221.466 314.008 Q221.466 306.899 223.949 303.175 Q226.45 299.432 231.171 299.432 Z" fill="#000000" fill-rule="evenodd" fill-opacity="1" /><path clip-path="url(#clip490)" d="M16.4842 1213.21 L16.4842 1173.01 L21.895 1173.01 L21.895 1189.88 L64.0042 1189.88 L64.0042 1196.34 L21.895 1196.34 L21.895 1213.21 L16.4842 1213.21 Z" fill="#000000" fill-rule="evenodd" fill-opacity="1" /><path clip-path="url(#clip490)" d="M32.4621 1164.32 Q32.4621 1169.03 36.1542 1171.77 Q39.8145 1174.51 46.212 1174.51 Q52.6095 1174.51 56.3017 1171.8 Q59.9619 1169.07 59.9619 1164.32 Q59.9619 1159.64 56.2698 1156.91 Q52.5777 1154.17 46.212 1154.17 Q39.8781 1154.17 36.186 1156.91 Q32.4621 1159.64 32.4621 1164.32 M27.4968 1164.32 Q27.4968 1156.68 32.4621 1152.32 Q37.4273 1147.96 46.212 1147.96 Q54.9649 1147.96 59.9619 1152.32 Q64.9272 1156.68 64.9272 1164.32 Q64.9272 1171.99 59.9619 1176.35 Q54.9649 1180.68 46.212 1180.68 Q37.4273 1180.68 32.4621 1176.35 Q27.4968 1171.99 27.4968 1164.32 Z" fill="#000000" fill-rule="evenodd" fill-opacity="1" /><path clip-path="url(#clip490)" d="M18.2347 1132.46 L28.3562 1132.46 L28.3562 1120.4 L32.9077 1120.4 L32.9077 1132.46 L52.2594 1132.46 Q56.6199 1132.46 57.8613 1131.29 Q59.1026 1130.08 59.1026 1126.42 L59.1026 1120.4 L64.0042 1120.4 L64.0042 1126.42 Q64.0042 1133.2 61.4897 1135.77 Q58.9434 1138.35 52.2594 1138.35 L32.9077 1138.35 L32.9077 1142.65 L28.3562 1142.65 L28.3562 1138.35 L18.2347 1138.35 L18.2347 1132.46 Z" fill="#000000" fill-rule="evenodd" fill-opacity="1" /><path clip-path="url(#clip490)" d="M46.0847 1096.5 Q46.0847 1103.59 47.7079 1106.33 Q49.3312 1109.07 53.2461 1109.07 Q56.3653 1109.07 58.2114 1107.03 Q60.0256 1104.96 60.0256 1101.43 Q60.0256 1096.56 56.5881 1093.63 Q53.1188 1090.67 47.3897 1090.67 L46.0847 1090.67 L46.0847 1096.5 M43.6657 1084.82 L64.0042 1084.82 L64.0042 1090.67 L58.5933 1090.67 Q61.8398 1092.68 63.3994 1095.67 Q64.9272 1098.66 64.9272 1102.99 Q64.9272 1108.46 61.8716 1111.71 Q58.7843 1114.93 53.6281 1114.93 Q47.6125 1114.93 44.5569 1110.92 Q41.5014 1106.87 41.5014 1098.88 L41.5014 1090.67 L40.9285 1090.67 Q36.8862 1090.67 34.6901 1093.35 Q32.4621 1095.99 32.4621 1100.79 Q32.4621 1103.85 33.1941 1106.75 Q33.9262 1109.64 35.3903 1112.32 L29.9795 1112.32 Q28.7381 1109.1 28.1334 1106.08 Q27.4968 1103.05 27.4968 1100.19 Q27.4968 1092.45 31.5072 1088.64 Q35.5176 1084.82 43.6657 1084.82 Z" fill="#000000" fill-rule="evenodd" fill-opacity="1" /><path clip-path="url(#clip490)" d="M14.479 1072.75 L14.479 1066.9 L64.0042 1066.9 L64.0042 1072.75 L14.479 1072.75 Z" fill="#000000" fill-rule="evenodd" fill-opacity="1" /><path clip-path="url(#clip490)" d="M44.7161 1003.43 L47.5806 1003.43 L47.5806 1030.36 Q53.6281 1029.98 56.8109 1026.73 Q59.9619 1023.45 59.9619 1017.63 Q59.9619 1014.25 59.1344 1011.1 Q58.3069 1007.92 56.6518 1004.8 L62.1899 1004.8 Q63.5267 1007.95 64.227 1011.26 Q64.9272 1014.57 64.9272 1017.98 Q64.9272 1026.51 59.9619 1031.5 Q54.9967 1036.47 46.5303 1036.47 Q37.7774 1036.47 32.6531 1031.76 Q27.4968 1027.02 27.4968 1018.99 Q27.4968 1011.8 32.1438 1007.63 Q36.7589 1003.43 44.7161 1003.43 M42.9973 1009.29 Q38.1912 1009.35 35.3266 1011.99 Q32.4621 1014.6 32.4621 1018.93 Q32.4621 1023.83 35.2312 1026.79 Q38.0002 1029.72 43.0292 1030.17 L42.9973 1009.29 Z" fill="#000000" fill-rule="evenodd" fill-opacity="1" /><path clip-path="url(#clip490)" d="M42.4881 964.186 L64.0042 964.186 L64.0042 970.042 L42.679 970.042 Q37.6183 970.042 35.1038 972.016 Q32.5894 973.989 32.5894 977.936 Q32.5894 982.678 35.6131 985.415 Q38.6368 988.153 43.8567 988.153 L64.0042 988.153 L64.0042 994.041 L28.3562 994.041 L28.3562 988.153 L33.8944 988.153 Q30.6797 986.052 29.0883 983.219 Q27.4968 980.355 27.4968 976.631 Q27.4968 970.488 31.3163 967.337 Q35.1038 964.186 42.4881 964.186 Z" fill="#000000" fill-rule="evenodd" fill-opacity="1" /><path clip-path="url(#clip490)" d="M44.7161 922.013 L47.5806 922.013 L47.5806 948.94 Q53.6281 948.558 56.8109 945.311 Q59.9619 942.033 59.9619 936.209 Q59.9619 932.835 59.1344 929.684 Q58.3069 926.501 56.6518 923.382 L62.1899 923.382 Q63.5267 926.533 64.227 929.843 Q64.9272 933.153 64.9272 936.559 Q64.9272 945.089 59.9619 950.086 Q54.9967 955.051 46.5303 955.051 Q37.7774 955.051 32.6531 950.34 Q27.4968 945.598 27.4968 937.577 Q27.4968 930.384 32.1438 926.214 Q36.7589 922.013 44.7161 922.013 M42.9973 927.869 Q38.1912 927.933 35.3266 930.575 Q32.4621 933.185 32.4621 937.513 Q32.4621 942.415 35.2312 945.375 Q38.0002 948.303 43.0292 948.749 L42.9973 927.869 Z" fill="#000000" fill-rule="evenodd" fill-opacity="1" /><path clip-path="url(#clip490)" d="M33.8307 891.744 Q33.2578 892.731 33.0032 893.908 Q32.7167 895.054 32.7167 896.455 Q32.7167 901.42 35.9632 904.094 Q39.1779 906.735 45.2253 906.735 L64.0042 906.735 L64.0042 912.624 L28.3562 912.624 L28.3562 906.735 L33.8944 906.735 Q30.6479 904.889 29.0883 901.929 Q27.4968 898.969 27.4968 894.736 Q27.4968 894.131 27.5923 893.399 Q27.656 892.667 27.8151 891.776 L33.8307 891.744 Z" fill="#000000" fill-rule="evenodd" fill-opacity="1" /><path clip-path="url(#clip490)" d="M45.7664 863.289 Q39.4007 863.289 35.8996 865.931 Q32.3984 868.541 32.3984 873.283 Q32.3984 877.994 35.8996 880.636 Q39.4007 883.246 45.7664 883.246 Q52.1003 883.246 55.6014 880.636 Q59.1026 877.994 59.1026 873.283 Q59.1026 868.541 55.6014 865.931 Q52.1003 863.289 45.7664 863.289 M59.58 857.433 Q68.683 857.433 73.1071 861.475 Q77.5631 865.517 77.5631 873.856 Q77.5631 876.944 77.0857 879.681 Q76.6401 882.418 75.6852 884.996 L69.9879 884.996 Q71.3884 882.418 72.0568 879.904 Q72.7252 877.389 72.7252 874.779 Q72.7252 869.018 69.7015 866.154 Q66.7096 863.289 60.6303 863.289 L57.7339 863.289 Q60.885 865.104 62.4446 867.936 Q64.0042 870.769 64.0042 874.716 Q64.0042 881.272 59.0071 885.283 Q54.01 889.293 45.7664 889.293 Q37.491 889.293 32.4939 885.283 Q27.4968 881.272 27.4968 874.716 Q27.4968 870.769 29.0564 867.936 Q30.616 865.104 33.7671 863.289 L28.3562 863.289 L28.3562 857.433 L59.58 857.433 Z" fill="#000000" fill-rule="evenodd" fill-opacity="1" /><path clip-path="url(#clip490)" d="M67.3143 830.538 Q73.68 833.02 75.6216 835.376 Q77.5631 837.731 77.5631 841.678 L77.5631 846.357 L72.6615 846.357 L72.6615 842.919 Q72.6615 840.5 71.5157 839.163 Q70.3699 837.827 66.1048 836.203 L63.4312 835.153 L28.3562 849.571 L28.3562 843.365 L56.238 832.225 L28.3562 821.085 L28.3562 814.878 L67.3143 830.538 Z" fill="#000000" fill-rule="evenodd" fill-opacity="1" /><path clip-path="url(#clip490)" d="M46.0847 769.873 Q46.0847 776.97 47.7079 779.708 Q49.3312 782.445 53.2461 782.445 Q56.3653 782.445 58.2114 780.408 Q60.0256 778.339 60.0256 774.806 Q60.0256 769.936 56.5881 767.008 Q53.1188 764.048 47.3897 764.048 L46.0847 764.048 L46.0847 769.873 M43.6657 758.192 L64.0042 758.192 L64.0042 764.048 L58.5933 764.048 Q61.8398 766.053 63.3994 769.045 Q64.9272 772.037 64.9272 776.366 Q64.9272 781.84 61.8716 785.087 Q58.7843 788.301 53.6281 788.301 Q47.6125 788.301 44.5569 784.291 Q41.5014 780.249 41.5014 772.26 L41.5014 764.048 L40.9285 764.048 Q36.8862 764.048 34.6901 766.722 Q32.4621 769.363 32.4621 774.169 Q32.4621 777.225 33.1941 780.121 Q33.9262 783.018 35.3903 785.691 L29.9795 785.691 Q28.7381 782.477 28.1334 779.453 Q27.4968 776.429 27.4968 773.565 Q27.4968 765.83 31.5072 762.011 Q35.5176 758.192 43.6657 758.192 Z" fill="#000000" fill-rule="evenodd" fill-opacity="1" /><path clip-path="url(#clip490)" d="M46.212 720.538 Q39.7508 720.538 36.0905 723.212 Q32.3984 725.854 32.3984 730.501 Q32.3984 735.148 36.0905 737.821 Q39.7508 740.463 46.212 740.463 Q52.6732 740.463 56.3653 737.821 Q60.0256 735.148 60.0256 730.501 Q60.0256 725.854 56.3653 723.212 Q52.6732 720.538 46.212 720.538 M33.7671 740.463 Q30.5842 738.617 29.0564 735.816 Q27.4968 732.983 27.4968 729.068 Q27.4968 722.575 32.6531 718.533 Q37.8093 714.459 46.212 714.459 Q54.6147 714.459 59.771 718.533 Q64.9272 722.575 64.9272 729.068 Q64.9272 732.983 63.3994 735.816 Q61.8398 738.617 58.657 740.463 L64.0042 740.463 L64.0042 746.351 L14.479 746.351 L14.479 740.463 L33.7671 740.463 Z" fill="#000000" fill-rule="evenodd" fill-opacity="1" /><path clip-path="url(#clip490)" d="M29.4065 682.026 L34.9447 682.026 Q33.6716 684.508 33.035 687.182 Q32.3984 689.856 32.3984 692.72 Q32.3984 697.081 33.7352 699.277 Q35.072 701.441 37.7456 701.441 Q39.7826 701.441 40.9603 699.882 Q42.1061 698.322 43.1565 693.611 L43.6021 691.606 Q44.9389 685.368 47.3897 682.758 Q49.8086 680.116 54.1691 680.116 Q59.1344 680.116 62.0308 684.063 Q64.9272 687.978 64.9272 694.853 Q64.9272 697.717 64.3543 700.836 Q63.8132 703.924 62.6992 707.361 L56.6518 707.361 Q58.3387 704.115 59.198 700.964 Q60.0256 697.813 60.0256 694.725 Q60.0256 690.588 58.6251 688.36 Q57.1929 686.132 54.6147 686.132 Q52.2276 686.132 50.9545 687.755 Q49.6813 689.346 48.5037 694.789 L48.0262 696.826 Q46.8804 702.269 44.5251 704.688 Q42.138 707.107 38.0002 707.107 Q32.9713 707.107 30.2341 703.542 Q27.4968 699.977 27.4968 693.42 Q27.4968 690.174 27.9743 687.309 Q28.4517 684.445 29.4065 682.026 Z" fill="#000000" fill-rule="evenodd" fill-opacity="1" /><path clip-path="url(#clip490)" d="M32.4621 656.977 Q32.4621 661.687 36.1542 664.425 Q39.8145 667.162 46.212 667.162 Q52.6095 667.162 56.3017 664.456 Q59.9619 661.719 59.9619 656.977 Q59.9619 652.298 56.2698 649.561 Q52.5777 646.823 46.212 646.823 Q39.8781 646.823 36.186 649.561 Q32.4621 652.298 32.4621 656.977 M27.4968 656.977 Q27.4968 649.338 32.4621 644.977 Q37.4273 640.617 46.212 640.617 Q54.9649 640.617 59.9619 644.977 Q64.9272 649.338 64.9272 656.977 Q64.9272 664.647 59.9619 669.008 Q54.9649 673.337 46.212 673.337 Q37.4273 673.337 32.4621 669.008 Q27.4968 664.647 27.4968 656.977 Z" fill="#000000" fill-rule="evenodd" fill-opacity="1" /><path clip-path="url(#clip490)" d="M14.479 630.909 L14.479 625.053 L64.0042 625.053 L64.0042 630.909 L14.479 630.909 Z" fill="#000000" fill-rule="evenodd" fill-opacity="1" /><path clip-path="url(#clip490)" d="M49.9359 613.404 L28.3562 613.404 L28.3562 607.547 L49.7131 607.547 Q54.7739 607.547 57.3202 605.574 Q59.8346 603.6 59.8346 599.654 Q59.8346 594.911 56.8109 592.174 Q53.7872 589.405 48.5673 589.405 L28.3562 589.405 L28.3562 583.548 L64.0042 583.548 L64.0042 589.405 L58.5296 589.405 Q61.7762 591.537 63.3676 594.37 Q64.9272 597.171 64.9272 600.895 Q64.9272 607.038 61.1078 610.221 Q57.2883 613.404 49.9359 613.404 M27.4968 598.667 L27.4968 598.667 Z" fill="#000000" fill-rule="evenodd" fill-opacity="1" /><path clip-path="url(#clip490)" d="M18.2347 565.693 L28.3562 565.693 L28.3562 553.63 L32.9077 553.63 L32.9077 565.693 L52.2594 565.693 Q56.6199 565.693 57.8613 564.515 Q59.1026 563.305 59.1026 559.645 L59.1026 553.63 L64.0042 553.63 L64.0042 559.645 Q64.0042 566.425 61.4897 569.003 Q58.9434 571.581 52.2594 571.581 L32.9077 571.581 L32.9077 575.878 L28.3562 575.878 L28.3562 571.581 L18.2347 571.581 L18.2347 565.693 Z" fill="#000000" fill-rule="evenodd" fill-opacity="1" /><path clip-path="url(#clip490)" d="M44.7161 515.435 L47.5806 515.435 L47.5806 542.362 Q53.6281 541.98 56.8109 538.734 Q59.9619 535.455 59.9619 529.631 Q59.9619 526.257 59.1344 523.106 Q58.3069 519.923 56.6518 516.804 L62.1899 516.804 Q63.5267 519.955 64.227 523.265 Q64.9272 526.575 64.9272 529.981 Q64.9272 538.511 59.9619 543.508 Q54.9967 548.473 46.5303 548.473 Q37.7774 548.473 32.6531 543.763 Q27.4968 539.02 27.4968 530.999 Q27.4968 523.806 32.1438 519.637 Q36.7589 515.435 44.7161 515.435 M42.9973 521.292 Q38.1912 521.355 35.3266 523.997 Q32.4621 526.607 32.4621 530.936 Q32.4621 535.837 35.2312 538.797 Q38.0002 541.726 43.0292 542.171 L42.9973 521.292 Z" fill="#000000" fill-rule="evenodd" fill-opacity="1" /><path clip-path="url(#clip490)" d="M44.7161 454.611 L47.5806 454.611 L47.5806 481.538 Q53.6281 481.156 56.8109 477.909 Q59.9619 474.631 59.9619 468.806 Q59.9619 465.433 59.1344 462.282 Q58.3069 459.099 56.6518 455.98 L62.1899 455.98 Q63.5267 459.131 64.227 462.441 Q64.9272 465.751 64.9272 469.157 Q64.9272 477.687 59.9619 482.684 Q54.9967 487.649 46.5303 487.649 Q37.7774 487.649 32.6531 482.938 Q27.4968 478.196 27.4968 470.175 Q27.4968 462.982 32.1438 458.812 Q36.7589 454.611 44.7161 454.611 M42.9973 460.467 Q38.1912 460.531 35.3266 463.173 Q32.4621 465.783 32.4621 470.111 Q32.4621 475.013 35.2312 477.973 Q38.0002 480.901 43.0292 481.347 L42.9973 460.467 Z" fill="#000000" fill-rule="evenodd" fill-opacity="1" /><path clip-path="url(#clip490)" d="M33.8307 424.342 Q33.2578 425.329 33.0032 426.506 Q32.7167 427.652 32.7167 429.053 Q32.7167 434.018 35.9632 436.692 Q39.1779 439.333 45.2253 439.333 L64.0042 439.333 L64.0042 445.222 L28.3562 445.222 L28.3562 439.333 L33.8944 439.333 Q30.6479 437.487 29.0883 434.527 Q27.4968 431.567 27.4968 427.334 Q27.4968 426.729 27.5923 425.997 Q27.656 425.265 27.8151 424.374 L33.8307 424.342 Z" fill="#000000" fill-rule="evenodd" fill-opacity="1" /><path clip-path="url(#clip490)" d="M33.8307 398.688 Q33.2578 399.675 33.0032 400.853 Q32.7167 401.998 32.7167 403.399 Q32.7167 408.364 35.9632 411.038 Q39.1779 413.679 45.2253 413.679 L64.0042 413.679 L64.0042 419.568 L28.3562 419.568 L28.3562 413.679 L33.8944 413.679 Q30.6479 411.833 29.0883 408.873 Q27.4968 405.913 27.4968 401.68 Q27.4968 401.075 27.5923 400.343 Q27.656 399.611 27.8151 398.72 L33.8307 398.688 Z" fill="#000000" fill-rule="evenodd" fill-opacity="1" /><path clip-path="url(#clip490)" d="M32.4621 380.164 Q32.4621 384.875 36.1542 387.612 Q39.8145 390.349 46.212 390.349 Q52.6095 390.349 56.3017 387.644 Q59.9619 384.906 59.9619 380.164 Q59.9619 375.485 56.2698 372.748 Q52.5777 370.011 46.212 370.011 Q39.8781 370.011 36.186 372.748 Q32.4621 375.485 32.4621 380.164 M27.4968 380.164 Q27.4968 372.525 32.4621 368.165 Q37.4273 363.804 46.212 363.804 Q54.9649 363.804 59.9619 368.165 Q64.9272 372.525 64.9272 380.164 Q64.9272 387.835 59.9619 392.195 Q54.9649 396.524 46.212 396.524 Q37.4273 396.524 32.4621 392.195 Q27.4968 387.835 27.4968 380.164 Z" fill="#000000" fill-rule="evenodd" fill-opacity="1" /><path clip-path="url(#clip490)" d="M33.8307 333.44 Q33.2578 334.426 33.0032 335.604 Q32.7167 336.75 32.7167 338.15 Q32.7167 343.116 35.9632 345.789 Q39.1779 348.431 45.2253 348.431 L64.0042 348.431 L64.0042 354.319 L28.3562 354.319 L28.3562 348.431 L33.8944 348.431 Q30.6479 346.585 29.0883 343.625 Q27.4968 340.665 27.4968 336.432 Q27.4968 335.827 27.5923 335.095 Q27.656 334.363 27.8151 333.472 L33.8307 333.44 Z" fill="#000000" fill-rule="evenodd" fill-opacity="1" /><path clip-path="url(#clip490)" d="M881.977 12.096 L916.733 12.096 L916.733 18.9825 L890.159 18.9825 L890.159 36.8065 L914.141 36.8065 L914.141 43.6931 L890.159 43.6931 L890.159 72.576 L881.977 72.576 L881.977 12.096 Z" fill="#000000" fill-rule="evenodd" fill-opacity="1" /><path clip-path="url(#clip490)" d="M963.643 48.0275 L963.643 51.6733 L929.372 51.6733 Q929.858 59.3701 933.99 63.421 Q938.163 67.4314 945.576 67.4314 Q949.87 67.4314 953.88 66.3781 Q957.931 65.3249 961.901 63.2184 L961.901 70.267 Q957.891 71.9684 953.678 72.8596 Q949.465 73.7508 945.13 73.7508 Q934.274 73.7508 927.914 67.4314 Q921.594 61.1119 921.594 50.3365 Q921.594 39.1965 927.59 32.6746 Q933.626 26.1121 943.834 26.1121 Q952.989 26.1121 958.296 32.0264 Q963.643 37.9003 963.643 48.0275 M956.189 45.84 Q956.108 39.7232 952.746 36.0774 Q949.424 32.4315 943.915 32.4315 Q937.677 32.4315 933.909 35.9558 Q930.182 39.4801 929.615 45.8805 L956.189 45.84 Z" fill="#000000" fill-rule="evenodd" fill-opacity="1" /><path clip-path="url(#clip490)" d="M983.978 65.6895 L1012.54 65.6895 L1012.54 72.576 L974.135 72.576 L974.135 65.6895 Q978.793 60.8689 986.814 52.7671 Q994.875 44.6248 996.941 42.2752 Q1000.87 37.8598 1002.41 34.8216 Q1003.99 31.7429 1003.99 28.7857 Q1003.99 23.9651 1000.59 20.927 Q997.225 17.8888 991.797 17.8888 Q987.948 17.8888 983.654 19.2256 Q979.401 20.5624 974.54 23.2765 L974.54 15.0127 Q979.482 13.0277 983.776 12.015 Q988.07 11.0023 991.635 11.0023 Q1001.03 11.0023 1006.62 15.7013 Q1012.21 20.4004 1012.21 28.2591 Q1012.21 31.9859 1010.8 35.3482 Q1009.42 38.6699 1005.73 43.2069 Q1004.72 44.3817 999.291 50.0125 Q993.863 55.6027 983.978 65.6895 Z" fill="#000000" fill-rule="evenodd" fill-opacity="1" /><path clip-path="url(#clip490)" d="M1074.27 16.7545 L1074.27 25.383 Q1070.14 21.5346 1065.44 19.6307 Q1060.78 17.7268 1055.52 17.7268 Q1045.15 17.7268 1039.64 24.0867 Q1034.13 30.4061 1034.13 42.3968 Q1034.13 54.3469 1039.64 60.7069 Q1045.15 67.0263 1055.52 67.0263 Q1060.78 67.0263 1065.44 65.1223 Q1070.14 63.2184 1074.27 59.3701 L1074.27 67.9175 Q1069.98 70.8341 1065.16 72.2924 Q1060.38 73.7508 1055.03 73.7508 Q1041.3 73.7508 1033.4 65.3654 Q1025.5 56.9395 1025.5 42.3968 Q1025.5 27.8135 1033.4 19.4281 Q1041.3 11.0023 1055.03 11.0023 Q1060.46 11.0023 1065.24 12.4606 Q1070.06 13.8784 1074.27 16.7545 Z" fill="#000000" fill-rule="evenodd" fill-opacity="1" /><path clip-path="url(#clip490)" d="M1112.88 34.1734 Q1111.62 33.4443 1110.12 33.1202 Q1108.67 32.7556 1106.88 32.7556 Q1100.56 32.7556 1097.16 36.8875 Q1093.8 40.9789 1093.8 48.6757 L1093.8 72.576 L1086.3 72.576 L1086.3 27.2059 L1093.8 27.2059 L1093.8 34.2544 Q1096.15 30.1225 1099.92 28.1376 Q1103.68 26.1121 1109.07 26.1121 Q1109.84 26.1121 1110.77 26.2337 Q1111.7 26.3147 1112.84 26.5172 L1112.88 34.1734 Z" fill="#000000" fill-rule="evenodd" fill-opacity="1" /><path clip-path="url(#clip490)" d="M1162.26 63.9476 L1162.26 47.7034 L1148.89 47.7034 L1148.89 40.9789 L1170.36 40.9789 L1170.36 66.9452 Q1165.62 70.3075 1159.91 72.0494 Q1154.2 73.7508 1147.72 73.7508 Q1133.54 73.7508 1125.52 65.4869 Q1117.54 57.1826 1117.54 42.3968 Q1117.54 27.5705 1125.52 19.3066 Q1133.54 11.0023 1147.72 11.0023 Q1153.63 11.0023 1158.94 12.4606 Q1164.28 13.9189 1168.78 16.7545 L1168.78 25.464 Q1164.24 21.6156 1159.14 19.6712 Q1154.04 17.7268 1148.4 17.7268 Q1137.31 17.7268 1131.71 23.9246 Q1126.17 30.1225 1126.17 42.3968 Q1126.17 54.6305 1131.71 60.8284 Q1137.31 67.0263 1148.4 67.0263 Q1152.74 67.0263 1156.14 66.2971 Q1159.54 65.5274 1162.26 63.9476 Z" fill="#000000" fill-rule="evenodd" fill-opacity="1" /><path clip-path="url(#clip490)" d="M1205.6 49.7694 Q1196.57 49.7694 1193.09 51.8354 Q1189.6 53.9013 1189.6 58.8839 Q1189.6 62.8538 1192.19 65.2034 Q1194.83 67.5124 1199.32 67.5124 Q1205.52 67.5124 1209.25 63.1374 Q1213.02 58.7219 1213.02 51.4303 L1213.02 49.7694 L1205.6 49.7694 M1220.47 46.6907 L1220.47 72.576 L1213.02 72.576 L1213.02 65.6895 Q1210.46 69.8214 1206.66 71.8063 Q1202.85 73.7508 1197.34 73.7508 Q1190.37 73.7508 1186.24 69.8619 Q1182.15 65.9325 1182.15 59.3701 Q1182.15 51.7138 1187.25 47.825 Q1192.4 43.9361 1202.57 43.9361 L1213.02 43.9361 L1213.02 43.2069 Q1213.02 38.0623 1209.61 35.2672 Q1206.25 32.4315 1200.13 32.4315 Q1196.25 32.4315 1192.56 33.3632 Q1188.87 34.295 1185.47 36.1584 L1185.47 29.2718 Q1189.56 27.692 1193.41 26.9223 Q1197.26 26.1121 1200.9 26.1121 Q1210.75 26.1121 1215.61 31.2163 Q1220.47 36.3204 1220.47 46.6907 Z" fill="#000000" fill-rule="evenodd" fill-opacity="1" /><path clip-path="url(#clip490)" d="M1270.3 86.3491 L1270.3 92.1419 L1227.19 92.1419 L1227.19 86.3491 L1270.3 86.3491 Z" fill="#000000" fill-rule="evenodd" fill-opacity="1" /><path clip-path="url(#clip490)" d="M1312.63 35.9153 Q1315.42 30.8922 1319.31 28.5022 Q1323.2 26.1121 1328.47 26.1121 Q1335.56 26.1121 1339.4 31.0947 Q1343.25 36.0368 1343.25 45.1919 L1343.25 72.576 L1335.76 72.576 L1335.76 45.4349 Q1335.76 38.913 1333.45 35.7533 Q1331.14 32.5936 1326.4 32.5936 Q1320.61 32.5936 1317.25 36.4419 Q1313.88 40.2903 1313.88 46.9338 L1313.88 72.576 L1306.39 72.576 L1306.39 45.4349 Q1306.39 38.8725 1304.08 35.7533 Q1301.77 32.5936 1296.95 32.5936 Q1291.24 32.5936 1287.88 36.4824 Q1284.51 40.3308 1284.51 46.9338 L1284.51 72.576 L1277.02 72.576 L1277.02 27.2059 L1284.51 27.2059 L1284.51 34.2544 Q1287.07 30.082 1290.63 28.0971 Q1294.2 26.1121 1299.1 26.1121 Q1304.04 26.1121 1307.48 28.6237 Q1310.97 31.1352 1312.63 35.9153 Z" fill="#000000" fill-rule="evenodd" fill-opacity="1" /><path clip-path="url(#clip490)" d="M1378.74 49.7694 Q1369.71 49.7694 1366.22 51.8354 Q1362.74 53.9013 1362.74 58.8839 Q1362.74 62.8538 1365.33 65.2034 Q1367.96 67.5124 1372.46 67.5124 Q1378.66 67.5124 1382.38 63.1374 Q1386.15 58.7219 1386.15 51.4303 L1386.15 49.7694 L1378.74 49.7694 M1393.61 46.6907 L1393.61 72.576 L1386.15 72.576 L1386.15 65.6895 Q1383.6 69.8214 1379.79 71.8063 Q1375.98 73.7508 1370.48 73.7508 Q1363.51 73.7508 1359.38 69.8619 Q1355.28 65.9325 1355.28 59.3701 Q1355.28 51.7138 1360.39 47.825 Q1365.53 43.9361 1375.7 43.9361 L1386.15 43.9361 L1386.15 43.2069 Q1386.15 38.0623 1382.75 35.2672 Q1379.39 32.4315 1373.27 32.4315 Q1369.38 32.4315 1365.7 33.3632 Q1362.01 34.295 1358.61 36.1584 L1358.61 29.2718 Q1362.7 27.692 1366.55 26.9223 Q1370.39 26.1121 1374.04 26.1121 Q1383.88 26.1121 1388.74 31.2163 Q1393.61 36.3204 1393.61 46.6907 Z" fill="#000000" fill-rule="evenodd" fill-opacity="1" /><path clip-path="url(#clip490)" d="M1446.67 27.2059 L1430.27 49.2833 L1447.52 72.576 L1438.73 72.576 L1425.53 54.752 L1412.32 72.576 L1403.53 72.576 L1421.15 48.8377 L1405.03 27.2059 L1413.82 27.2059 L1425.85 43.369 L1437.88 27.2059 L1446.67 27.2059 Z" fill="#000000" fill-rule="evenodd" fill-opacity="1" /><path clip-path="url(#clip490)" d="M1489.25 28.9478 L1489.25 35.9153 Q1486.09 34.1734 1482.89 33.3227 Q1479.73 32.4315 1476.49 32.4315 Q1469.24 32.4315 1465.23 37.0496 Q1461.22 41.6271 1461.22 49.9314 Q1461.22 58.2358 1465.23 62.8538 Q1469.24 67.4314 1476.49 67.4314 Q1479.73 67.4314 1482.89 66.5807 Q1486.09 65.6895 1489.25 63.9476 L1489.25 70.8341 Q1486.13 72.2924 1482.77 73.0216 Q1479.44 73.7508 1475.68 73.7508 Q1465.43 73.7508 1459.39 67.3098 Q1453.36 60.8689 1453.36 49.9314 Q1453.36 38.832 1459.43 32.472 Q1465.55 26.1121 1476.16 26.1121 Q1479.61 26.1121 1482.89 26.8413 Q1486.17 27.5299 1489.25 28.9478 Z" fill="#000000" fill-rule="evenodd" fill-opacity="1" /><path clip-path="url(#clip490)" d="M1519.79 32.4315 Q1513.8 32.4315 1510.31 37.1306 Q1506.83 41.7891 1506.83 49.9314 Q1506.83 58.0738 1510.27 62.7728 Q1513.76 67.4314 1519.79 67.4314 Q1525.75 67.4314 1529.23 62.7323 Q1532.71 58.0333 1532.71 49.9314 Q1532.71 41.8701 1529.23 37.1711 Q1525.75 32.4315 1519.79 32.4315 M1519.79 26.1121 Q1529.51 26.1121 1535.06 32.4315 Q1540.61 38.7509 1540.61 49.9314 Q1540.61 61.0714 1535.06 67.4314 Q1529.51 73.7508 1519.79 73.7508 Q1510.03 73.7508 1504.48 67.4314 Q1498.97 61.0714 1498.97 49.9314 Q1498.97 38.7509 1504.48 32.4315 Q1510.03 26.1121 1519.79 26.1121 Z" fill="#000000" fill-rule="evenodd" fill-opacity="1" /><path clip-path="url(#clip490)" d="M1590.68 45.1919 L1590.68 72.576 L1583.23 72.576 L1583.23 45.4349 Q1583.23 38.994 1580.72 35.7938 Q1578.21 32.5936 1573.18 32.5936 Q1567.15 32.5936 1563.66 36.4419 Q1560.18 40.2903 1560.18 46.9338 L1560.18 72.576 L1552.68 72.576 L1552.68 27.2059 L1560.18 27.2059 L1560.18 34.2544 Q1562.85 30.163 1566.46 28.1376 Q1570.1 26.1121 1574.84 26.1121 Q1582.66 26.1121 1586.67 30.9732 Q1590.68 35.7938 1590.68 45.1919 Z" fill="#000000" fill-rule="evenodd" fill-opacity="1" /><path clip-path="url(#clip490)" d="M1635.4 34.0924 L1635.4 9.54393 L1642.86 9.54393 L1642.86 72.576 L1635.4 72.576 L1635.4 65.7705 Q1633.05 69.8214 1629.45 71.8063 Q1625.88 73.7508 1620.86 73.7508 Q1612.64 73.7508 1607.45 67.1883 Q1602.31 60.6258 1602.31 49.9314 Q1602.31 39.2371 1607.45 32.6746 Q1612.64 26.1121 1620.86 26.1121 Q1625.88 26.1121 1629.45 28.0971 Q1633.05 30.0415 1635.4 34.0924 M1610.01 49.9314 Q1610.01 58.1548 1613.37 62.8538 Q1616.77 67.5124 1622.68 67.5124 Q1628.6 67.5124 1632 62.8538 Q1635.4 58.1548 1635.4 49.9314 Q1635.4 41.7081 1632 37.0496 Q1628.6 32.3505 1622.68 32.3505 Q1616.77 32.3505 1613.37 37.0496 Q1610.01 41.7081 1610.01 49.9314 Z" fill="#000000" fill-rule="evenodd" fill-opacity="1" /><path clip-path="url(#clip490)" d="M1676.76 17.4837 Q1670.44 17.4837 1667.24 23.7221 Q1664.08 29.92 1664.08 42.3968 Q1664.08 54.833 1667.24 61.0714 Q1670.44 67.2693 1676.76 67.2693 Q1683.12 67.2693 1686.28 61.0714 Q1689.48 54.833 1689.48 42.3968 Q1689.48 29.92 1686.28 23.7221 Q1683.12 17.4837 1676.76 17.4837 M1676.76 11.0023 Q1686.93 11.0023 1692.28 19.0636 Q1697.67 27.0843 1697.67 42.3968 Q1697.67 57.6687 1692.28 65.73 Q1686.93 73.7508 1676.76 73.7508 Q1666.6 73.7508 1661.21 65.73 Q1655.86 57.6687 1655.86 42.3968 Q1655.86 27.0843 1661.21 19.0636 Q1666.6 11.0023 1676.76 11.0023 Z" fill="#000000" fill-rule="evenodd" fill-opacity="1" /><path clip-path="url(#clip490)" d="M1719.1 65.6895 L1747.65 65.6895 L1747.65 72.576 L1709.25 72.576 L1709.25 65.6895 Q1713.91 60.8689 1721.93 52.7671 Q1729.99 44.6248 1732.06 42.2752 Q1735.99 37.8598 1737.53 34.8216 Q1739.11 31.7429 1739.11 28.7857 Q1739.11 23.9651 1735.7 20.927 Q1732.34 17.8888 1726.91 17.8888 Q1723.07 17.8888 1718.77 19.2256 Q1714.52 20.5624 1709.66 23.2765 L1709.66 15.0127 Q1714.6 13.0277 1718.89 12.015 Q1723.19 11.0023 1726.75 11.0023 Q1736.15 11.0023 1741.74 15.7013 Q1747.33 20.4004 1747.33 28.2591 Q1747.33 31.9859 1745.91 35.3482 Q1744.54 38.6699 1740.85 43.2069 Q1739.84 44.3817 1734.41 50.0125 Q1728.98 55.6027 1719.1 65.6895 Z" fill="#000000" fill-rule="evenodd" fill-opacity="1" /><polyline clip-path="url(#clip492)" style="stroke:#009af9; stroke-linecap:butt; stroke-linejoin:round; stroke-width:5.2; stroke-opacity:1; fill:none" points="
  341.747,156.329 406.618,212.139 471.489,181.519 536.361,213.045 601.232,210.005 666.103,246.116 730.974,241.333 795.846,206.539 860.717,457.315 925.588,490.522 
  990.459,375.107 1055.33,403.913 1120.2,561.201 1185.07,592.452 1249.94,608.386 1314.82,639.016 1379.69,651.311 1444.56,618.127 1509.43,691.816 1574.3,716.4 
  1639.17,830.297 1704.04,861.408 1768.91,948.207 1833.79,996.871 1898.66,1058.28 1963.53,1128.25 2028.4,1183.47 2093.27,1247.63 2158.14,1297.39 2223.01,1343.16 
  2287.88,1404.26 2352.76,1600.23 
  "/>
<line clip-path="url(#clip492)" x1="341.747" y1="156.329" x2="325.747" y2="140.329" style="stroke:#009af9; stroke-width:3.2; stroke-opacity:1"/>
<line clip-path="url(#clip492)" x1="341.747" y1="156.329" x2="325.747" y2="172.329" style="stroke:#009af9; stroke-width:3.2; stroke-opacity:1"/>
<line clip-path="url(#clip492)" x1="341.747" y1="156.329" x2="357.747" y2="172.329" style="stroke:#009af9; stroke-width:3.2; stroke-opacity:1"/>
<line clip-path="url(#clip492)" x1="341.747" y1="156.329" x2="357.747" y2="140.329" style="stroke:#009af9; stroke-width:3.2; stroke-opacity:1"/>
<line clip-path="url(#clip492)" x1="406.618" y1="212.139" x2="390.618" y2="196.139" style="stroke:#009af9; stroke-width:3.2; stroke-opacity:1"/>
<line clip-path="url(#clip492)" x1="406.618" y1="212.139" x2="390.618" y2="228.139" style="stroke:#009af9; stroke-width:3.2; stroke-opacity:1"/>
<line clip-path="url(#clip492)" x1="406.618" y1="212.139" x2="422.618" y2="228.139" style="stroke:#009af9; stroke-width:3.2; stroke-opacity:1"/>
<line clip-path="url(#clip492)" x1="406.618" y1="212.139" x2="422.618" y2="196.139" style="stroke:#009af9; stroke-width:3.2; stroke-opacity:1"/>
<line clip-path="url(#clip492)" x1="471.489" y1="181.519" x2="455.489" y2="165.519" style="stroke:#009af9; stroke-width:3.2; stroke-opacity:1"/>
<line clip-path="url(#clip492)" x1="471.489" y1="181.519" x2="455.489" y2="197.519" style="stroke:#009af9; stroke-width:3.2; stroke-opacity:1"/>
<line clip-path="url(#clip492)" x1="471.489" y1="181.519" x2="487.489" y2="197.519" style="stroke:#009af9; stroke-width:3.2; stroke-opacity:1"/>
<line clip-path="url(#clip492)" x1="471.489" y1="181.519" x2="487.489" y2="165.519" style="stroke:#009af9; stroke-width:3.2; stroke-opacity:1"/>
<line clip-path="url(#clip492)" x1="536.361" y1="213.045" x2="520.361" y2="197.045" style="stroke:#009af9; stroke-width:3.2; stroke-opacity:1"/>
<line clip-path="url(#clip492)" x1="536.361" y1="213.045" x2="520.361" y2="229.045" style="stroke:#009af9; stroke-width:3.2; stroke-opacity:1"/>
<line clip-path="url(#clip492)" x1="536.361" y1="213.045" x2="552.361" y2="229.045" style="stroke:#009af9; stroke-width:3.2; stroke-opacity:1"/>
<line clip-path="url(#clip492)" x1="536.361" y1="213.045" x2="552.361" y2="197.045" style="stroke:#009af9; stroke-width:3.2; stroke-opacity:1"/>
<line clip-path="url(#clip492)" x1="601.232" y1="210.005" x2="585.232" y2="194.005" style="stroke:#009af9; stroke-width:3.2; stroke-opacity:1"/>
<line clip-path="url(#clip492)" x1="601.232" y1="210.005" x2="585.232" y2="226.005" style="stroke:#009af9; stroke-width:3.2; stroke-opacity:1"/>
<line clip-path="url(#clip492)" x1="601.232" y1="210.005" x2="617.232" y2="226.005" style="stroke:#009af9; stroke-width:3.2; stroke-opacity:1"/>
<line clip-path="url(#clip492)" x1="601.232" y1="210.005" x2="617.232" y2="194.005" style="stroke:#009af9; stroke-width:3.2; stroke-opacity:1"/>
<line clip-path="url(#clip492)" x1="666.103" y1="246.116" x2="650.103" y2="230.116" style="stroke:#009af9; stroke-width:3.2; stroke-opacity:1"/>
<line clip-path="url(#clip492)" x1="666.103" y1="246.116" x2="650.103" y2="262.116" style="stroke:#009af9; stroke-width:3.2; stroke-opacity:1"/>
<line clip-path="url(#clip492)" x1="666.103" y1="246.116" x2="682.103" y2="262.116" style="stroke:#009af9; stroke-width:3.2; stroke-opacity:1"/>
<line clip-path="url(#clip492)" x1="666.103" y1="246.116" x2="682.103" y2="230.116" style="stroke:#009af9; stroke-width:3.2; stroke-opacity:1"/>
<line clip-path="url(#clip492)" x1="730.974" y1="241.333" x2="714.974" y2="225.333" style="stroke:#009af9; stroke-width:3.2; stroke-opacity:1"/>
<line clip-path="url(#clip492)" x1="730.974" y1="241.333" x2="714.974" y2="257.333" style="stroke:#009af9; stroke-width:3.2; stroke-opacity:1"/>
<line clip-path="url(#clip492)" x1="730.974" y1="241.333" x2="746.974" y2="257.333" style="stroke:#009af9; stroke-width:3.2; stroke-opacity:1"/>
<line clip-path="url(#clip492)" x1="730.974" y1="241.333" x2="746.974" y2="225.333" style="stroke:#009af9; stroke-width:3.2; stroke-opacity:1"/>
<line clip-path="url(#clip492)" x1="795.846" y1="206.539" x2="779.846" y2="190.539" style="stroke:#009af9; stroke-width:3.2; stroke-opacity:1"/>
<line clip-path="url(#clip492)" x1="795.846" y1="206.539" x2="779.846" y2="222.539" style="stroke:#009af9; stroke-width:3.2; stroke-opacity:1"/>
<line clip-path="url(#clip492)" x1="795.846" y1="206.539" x2="811.846" y2="222.539" style="stroke:#009af9; stroke-width:3.2; stroke-opacity:1"/>
<line clip-path="url(#clip492)" x1="795.846" y1="206.539" x2="811.846" y2="190.539" style="stroke:#009af9; stroke-width:3.2; stroke-opacity:1"/>
<line clip-path="url(#clip492)" x1="860.717" y1="457.315" x2="844.717" y2="441.315" style="stroke:#009af9; stroke-width:3.2; stroke-opacity:1"/>
<line clip-path="url(#clip492)" x1="860.717" y1="457.315" x2="844.717" y2="473.315" style="stroke:#009af9; stroke-width:3.2; stroke-opacity:1"/>
<line clip-path="url(#clip492)" x1="860.717" y1="457.315" x2="876.717" y2="473.315" style="stroke:#009af9; stroke-width:3.2; stroke-opacity:1"/>
<line clip-path="url(#clip492)" x1="860.717" y1="457.315" x2="876.717" y2="441.315" style="stroke:#009af9; stroke-width:3.2; stroke-opacity:1"/>
<line clip-path="url(#clip492)" x1="925.588" y1="490.522" x2="909.588" y2="474.522" style="stroke:#009af9; stroke-width:3.2; stroke-opacity:1"/>
<line clip-path="url(#clip492)" x1="925.588" y1="490.522" x2="909.588" y2="506.522" style="stroke:#009af9; stroke-width:3.2; stroke-opacity:1"/>
<line clip-path="url(#clip492)" x1="925.588" y1="490.522" x2="941.588" y2="506.522" style="stroke:#009af9; stroke-width:3.2; stroke-opacity:1"/>
<line clip-path="url(#clip492)" x1="925.588" y1="490.522" x2="941.588" y2="474.522" style="stroke:#009af9; stroke-width:3.2; stroke-opacity:1"/>
<line clip-path="url(#clip492)" x1="990.459" y1="375.107" x2="974.459" y2="359.107" style="stroke:#009af9; stroke-width:3.2; stroke-opacity:1"/>
<line clip-path="url(#clip492)" x1="990.459" y1="375.107" x2="974.459" y2="391.107" style="stroke:#009af9; stroke-width:3.2; stroke-opacity:1"/>
<line clip-path="url(#clip492)" x1="990.459" y1="375.107" x2="1006.46" y2="391.107" style="stroke:#009af9; stroke-width:3.2; stroke-opacity:1"/>
<line clip-path="url(#clip492)" x1="990.459" y1="375.107" x2="1006.46" y2="359.107" style="stroke:#009af9; stroke-width:3.2; stroke-opacity:1"/>
<line clip-path="url(#clip492)" x1="1055.33" y1="403.913" x2="1039.33" y2="387.913" style="stroke:#009af9; stroke-width:3.2; stroke-opacity:1"/>
<line clip-path="url(#clip492)" x1="1055.33" y1="403.913" x2="1039.33" y2="419.913" style="stroke:#009af9; stroke-width:3.2; stroke-opacity:1"/>
<line clip-path="url(#clip492)" x1="1055.33" y1="403.913" x2="1071.33" y2="419.913" style="stroke:#009af9; stroke-width:3.2; stroke-opacity:1"/>
<line clip-path="url(#clip492)" x1="1055.33" y1="403.913" x2="1071.33" y2="387.913" style="stroke:#009af9; stroke-width:3.2; stroke-opacity:1"/>
<line clip-path="url(#clip492)" x1="1120.2" y1="561.201" x2="1104.2" y2="545.201" style="stroke:#009af9; stroke-width:3.2; stroke-opacity:1"/>
<line clip-path="url(#clip492)" x1="1120.2" y1="561.201" x2="1104.2" y2="577.201" style="stroke:#009af9; stroke-width:3.2; stroke-opacity:1"/>
<line clip-path="url(#clip492)" x1="1120.2" y1="561.201" x2="1136.2" y2="577.201" style="stroke:#009af9; stroke-width:3.2; stroke-opacity:1"/>
<line clip-path="url(#clip492)" x1="1120.2" y1="561.201" x2="1136.2" y2="545.201" style="stroke:#009af9; stroke-width:3.2; stroke-opacity:1"/>
<line clip-path="url(#clip492)" x1="1185.07" y1="592.452" x2="1169.07" y2="576.452" style="stroke:#009af9; stroke-width:3.2; stroke-opacity:1"/>
<line clip-path="url(#clip492)" x1="1185.07" y1="592.452" x2="1169.07" y2="608.452" style="stroke:#009af9; stroke-width:3.2; stroke-opacity:1"/>
<line clip-path="url(#clip492)" x1="1185.07" y1="592.452" x2="1201.07" y2="608.452" style="stroke:#009af9; stroke-width:3.2; stroke-opacity:1"/>
<line clip-path="url(#clip492)" x1="1185.07" y1="592.452" x2="1201.07" y2="576.452" style="stroke:#009af9; stroke-width:3.2; stroke-opacity:1"/>
<line clip-path="url(#clip492)" x1="1249.94" y1="608.386" x2="1233.94" y2="592.386" style="stroke:#009af9; stroke-width:3.2; stroke-opacity:1"/>
<line clip-path="url(#clip492)" x1="1249.94" y1="608.386" x2="1233.94" y2="624.386" style="stroke:#009af9; stroke-width:3.2; stroke-opacity:1"/>
<line clip-path="url(#clip492)" x1="1249.94" y1="608.386" x2="1265.94" y2="624.386" style="stroke:#009af9; stroke-width:3.2; stroke-opacity:1"/>
<line clip-path="url(#clip492)" x1="1249.94" y1="608.386" x2="1265.94" y2="592.386" style="stroke:#009af9; stroke-width:3.2; stroke-opacity:1"/>
<line clip-path="url(#clip492)" x1="1314.82" y1="639.016" x2="1298.82" y2="623.016" style="stroke:#009af9; stroke-width:3.2; stroke-opacity:1"/>
<line clip-path="url(#clip492)" x1="1314.82" y1="639.016" x2="1298.82" y2="655.016" style="stroke:#009af9; stroke-width:3.2; stroke-opacity:1"/>
<line clip-path="url(#clip492)" x1="1314.82" y1="639.016" x2="1330.82" y2="655.016" style="stroke:#009af9; stroke-width:3.2; stroke-opacity:1"/>
<line clip-path="url(#clip492)" x1="1314.82" y1="639.016" x2="1330.82" y2="623.016" style="stroke:#009af9; stroke-width:3.2; stroke-opacity:1"/>
<line clip-path="url(#clip492)" x1="1379.69" y1="651.311" x2="1363.69" y2="635.311" style="stroke:#009af9; stroke-width:3.2; stroke-opacity:1"/>
<line clip-path="url(#clip492)" x1="1379.69" y1="651.311" x2="1363.69" y2="667.311" style="stroke:#009af9; stroke-width:3.2; stroke-opacity:1"/>
<line clip-path="url(#clip492)" x1="1379.69" y1="651.311" x2="1395.69" y2="667.311" style="stroke:#009af9; stroke-width:3.2; stroke-opacity:1"/>
<line clip-path="url(#clip492)" x1="1379.69" y1="651.311" x2="1395.69" y2="635.311" style="stroke:#009af9; stroke-width:3.2; stroke-opacity:1"/>
<line clip-path="url(#clip492)" x1="1444.56" y1="618.127" x2="1428.56" y2="602.127" style="stroke:#009af9; stroke-width:3.2; stroke-opacity:1"/>
<line clip-path="url(#clip492)" x1="1444.56" y1="618.127" x2="1428.56" y2="634.127" style="stroke:#009af9; stroke-width:3.2; stroke-opacity:1"/>
<line clip-path="url(#clip492)" x1="1444.56" y1="618.127" x2="1460.56" y2="634.127" style="stroke:#009af9; stroke-width:3.2; stroke-opacity:1"/>
<line clip-path="url(#clip492)" x1="1444.56" y1="618.127" x2="1460.56" y2="602.127" style="stroke:#009af9; stroke-width:3.2; stroke-opacity:1"/>
<line clip-path="url(#clip492)" x1="1509.43" y1="691.816" x2="1493.43" y2="675.816" style="stroke:#009af9; stroke-width:3.2; stroke-opacity:1"/>
<line clip-path="url(#clip492)" x1="1509.43" y1="691.816" x2="1493.43" y2="707.816" style="stroke:#009af9; stroke-width:3.2; stroke-opacity:1"/>
<line clip-path="url(#clip492)" x1="1509.43" y1="691.816" x2="1525.43" y2="707.816" style="stroke:#009af9; stroke-width:3.2; stroke-opacity:1"/>
<line clip-path="url(#clip492)" x1="1509.43" y1="691.816" x2="1525.43" y2="675.816" style="stroke:#009af9; stroke-width:3.2; stroke-opacity:1"/>
<line clip-path="url(#clip492)" x1="1574.3" y1="716.4" x2="1558.3" y2="700.4" style="stroke:#009af9; stroke-width:3.2; stroke-opacity:1"/>
<line clip-path="url(#clip492)" x1="1574.3" y1="716.4" x2="1558.3" y2="732.4" style="stroke:#009af9; stroke-width:3.2; stroke-opacity:1"/>
<line clip-path="url(#clip492)" x1="1574.3" y1="716.4" x2="1590.3" y2="732.4" style="stroke:#009af9; stroke-width:3.2; stroke-opacity:1"/>
<line clip-path="url(#clip492)" x1="1574.3" y1="716.4" x2="1590.3" y2="700.4" style="stroke:#009af9; stroke-width:3.2; stroke-opacity:1"/>
<line clip-path="url(#clip492)" x1="1639.17" y1="830.297" x2="1623.17" y2="814.297" style="stroke:#009af9; stroke-width:3.2; stroke-opacity:1"/>
<line clip-path="url(#clip492)" x1="1639.17" y1="830.297" x2="1623.17" y2="846.297" style="stroke:#009af9; stroke-width:3.2; stroke-opacity:1"/>
<line clip-path="url(#clip492)" x1="1639.17" y1="830.297" x2="1655.17" y2="846.297" style="stroke:#009af9; stroke-width:3.2; stroke-opacity:1"/>
<line clip-path="url(#clip492)" x1="1639.17" y1="830.297" x2="1655.17" y2="814.297" style="stroke:#009af9; stroke-width:3.2; stroke-opacity:1"/>
<line clip-path="url(#clip492)" x1="1704.04" y1="861.408" x2="1688.04" y2="845.408" style="stroke:#009af9; stroke-width:3.2; stroke-opacity:1"/>
<line clip-path="url(#clip492)" x1="1704.04" y1="861.408" x2="1688.04" y2="877.408" style="stroke:#009af9; stroke-width:3.2; stroke-opacity:1"/>
<line clip-path="url(#clip492)" x1="1704.04" y1="861.408" x2="1720.04" y2="877.408" style="stroke:#009af9; stroke-width:3.2; stroke-opacity:1"/>
<line clip-path="url(#clip492)" x1="1704.04" y1="861.408" x2="1720.04" y2="845.408" style="stroke:#009af9; stroke-width:3.2; stroke-opacity:1"/>
<line clip-path="url(#clip492)" x1="1768.91" y1="948.207" x2="1752.91" y2="932.207" style="stroke:#009af9; stroke-width:3.2; stroke-opacity:1"/>
<line clip-path="url(#clip492)" x1="1768.91" y1="948.207" x2="1752.91" y2="964.207" style="stroke:#009af9; stroke-width:3.2; stroke-opacity:1"/>
<line clip-path="url(#clip492)" x1="1768.91" y1="948.207" x2="1784.91" y2="964.207" style="stroke:#009af9; stroke-width:3.2; stroke-opacity:1"/>
<line clip-path="url(#clip492)" x1="1768.91" y1="948.207" x2="1784.91" y2="932.207" style="stroke:#009af9; stroke-width:3.2; stroke-opacity:1"/>
<line clip-path="url(#clip492)" x1="1833.79" y1="996.871" x2="1817.79" y2="980.871" style="stroke:#009af9; stroke-width:3.2; stroke-opacity:1"/>
<line clip-path="url(#clip492)" x1="1833.79" y1="996.871" x2="1817.79" y2="1012.87" style="stroke:#009af9; stroke-width:3.2; stroke-opacity:1"/>
<line clip-path="url(#clip492)" x1="1833.79" y1="996.871" x2="1849.79" y2="1012.87" style="stroke:#009af9; stroke-width:3.2; stroke-opacity:1"/>
<line clip-path="url(#clip492)" x1="1833.79" y1="996.871" x2="1849.79" y2="980.871" style="stroke:#009af9; stroke-width:3.2; stroke-opacity:1"/>
<line clip-path="url(#clip492)" x1="1898.66" y1="1058.28" x2="1882.66" y2="1042.28" style="stroke:#009af9; stroke-width:3.2; stroke-opacity:1"/>
<line clip-path="url(#clip492)" x1="1898.66" y1="1058.28" x2="1882.66" y2="1074.28" style="stroke:#009af9; stroke-width:3.2; stroke-opacity:1"/>
<line clip-path="url(#clip492)" x1="1898.66" y1="1058.28" x2="1914.66" y2="1074.28" style="stroke:#009af9; stroke-width:3.2; stroke-opacity:1"/>
<line clip-path="url(#clip492)" x1="1898.66" y1="1058.28" x2="1914.66" y2="1042.28" style="stroke:#009af9; stroke-width:3.2; stroke-opacity:1"/>
<line clip-path="url(#clip492)" x1="1963.53" y1="1128.25" x2="1947.53" y2="1112.25" style="stroke:#009af9; stroke-width:3.2; stroke-opacity:1"/>
<line clip-path="url(#clip492)" x1="1963.53" y1="1128.25" x2="1947.53" y2="1144.25" style="stroke:#009af9; stroke-width:3.2; stroke-opacity:1"/>
<line clip-path="url(#clip492)" x1="1963.53" y1="1128.25" x2="1979.53" y2="1144.25" style="stroke:#009af9; stroke-width:3.2; stroke-opacity:1"/>
<line clip-path="url(#clip492)" x1="1963.53" y1="1128.25" x2="1979.53" y2="1112.25" style="stroke:#009af9; stroke-width:3.2; stroke-opacity:1"/>
<line clip-path="url(#clip492)" x1="2028.4" y1="1183.47" x2="2012.4" y2="1167.47" style="stroke:#009af9; stroke-width:3.2; stroke-opacity:1"/>
<line clip-path="url(#clip492)" x1="2028.4" y1="1183.47" x2="2012.4" y2="1199.47" style="stroke:#009af9; stroke-width:3.2; stroke-opacity:1"/>
<line clip-path="url(#clip492)" x1="2028.4" y1="1183.47" x2="2044.4" y2="1199.47" style="stroke:#009af9; stroke-width:3.2; stroke-opacity:1"/>
<line clip-path="url(#clip492)" x1="2028.4" y1="1183.47" x2="2044.4" y2="1167.47" style="stroke:#009af9; stroke-width:3.2; stroke-opacity:1"/>
<line clip-path="url(#clip492)" x1="2093.27" y1="1247.63" x2="2077.27" y2="1231.63" style="stroke:#009af9; stroke-width:3.2; stroke-opacity:1"/>
<line clip-path="url(#clip492)" x1="2093.27" y1="1247.63" x2="2077.27" y2="1263.63" style="stroke:#009af9; stroke-width:3.2; stroke-opacity:1"/>
<line clip-path="url(#clip492)" x1="2093.27" y1="1247.63" x2="2109.27" y2="1263.63" style="stroke:#009af9; stroke-width:3.2; stroke-opacity:1"/>
<line clip-path="url(#clip492)" x1="2093.27" y1="1247.63" x2="2109.27" y2="1231.63" style="stroke:#009af9; stroke-width:3.2; stroke-opacity:1"/>
<line clip-path="url(#clip492)" x1="2158.14" y1="1297.39" x2="2142.14" y2="1281.39" style="stroke:#009af9; stroke-width:3.2; stroke-opacity:1"/>
<line clip-path="url(#clip492)" x1="2158.14" y1="1297.39" x2="2142.14" y2="1313.39" style="stroke:#009af9; stroke-width:3.2; stroke-opacity:1"/>
<line clip-path="url(#clip492)" x1="2158.14" y1="1297.39" x2="2174.14" y2="1313.39" style="stroke:#009af9; stroke-width:3.2; stroke-opacity:1"/>
<line clip-path="url(#clip492)" x1="2158.14" y1="1297.39" x2="2174.14" y2="1281.39" style="stroke:#009af9; stroke-width:3.2; stroke-opacity:1"/>
<line clip-path="url(#clip492)" x1="2223.01" y1="1343.16" x2="2207.01" y2="1327.16" style="stroke:#009af9; stroke-width:3.2; stroke-opacity:1"/>
<line clip-path="url(#clip492)" x1="2223.01" y1="1343.16" x2="2207.01" y2="1359.16" style="stroke:#009af9; stroke-width:3.2; stroke-opacity:1"/>
<line clip-path="url(#clip492)" x1="2223.01" y1="1343.16" x2="2239.01" y2="1359.16" style="stroke:#009af9; stroke-width:3.2; stroke-opacity:1"/>
<line clip-path="url(#clip492)" x1="2223.01" y1="1343.16" x2="2239.01" y2="1327.16" style="stroke:#009af9; stroke-width:3.2; stroke-opacity:1"/>
<line clip-path="url(#clip492)" x1="2287.88" y1="1404.26" x2="2271.88" y2="1388.26" style="stroke:#009af9; stroke-width:3.2; stroke-opacity:1"/>
<line clip-path="url(#clip492)" x1="2287.88" y1="1404.26" x2="2271.88" y2="1420.26" style="stroke:#009af9; stroke-width:3.2; stroke-opacity:1"/>
<line clip-path="url(#clip492)" x1="2287.88" y1="1404.26" x2="2303.88" y2="1420.26" style="stroke:#009af9; stroke-width:3.2; stroke-opacity:1"/>
<line clip-path="url(#clip492)" x1="2287.88" y1="1404.26" x2="2303.88" y2="1388.26" style="stroke:#009af9; stroke-width:3.2; stroke-opacity:1"/>
<path clip-path="url(#clip490)" d="
M1713.79 270.476 L2283.56 270.476 L2283.56 166.796 L1713.79 166.796  Z
  " fill="#ffffff" fill-rule="evenodd" fill-opacity="1"/>
<polyline clip-path="url(#clip490)" style="stroke:#000000; stroke-linecap:butt; stroke-linejoin:round; stroke-width:4; stroke-opacity:1; fill:none" points="
  1713.79,270.476 2283.56,270.476 2283.56,166.796 1713.79,166.796 1713.79,270.476 
  "/>
<polyline clip-path="url(#clip490)" style="stroke:#009af9; stroke-linecap:butt; stroke-linejoin:round; stroke-width:4; stroke-opacity:1; fill:none" points="
  1736.85,218.636 1875.25,218.636 
  "/>
<line clip-path="url(#clip490)" x1="1806.05" y1="218.636" x2="1780.45" y2="193.036" style="stroke:#009af9; stroke-width:3.2; stroke-opacity:1"/>
<line clip-path="url(#clip490)" x1="1806.05" y1="218.636" x2="1780.45" y2="244.236" style="stroke:#009af9; stroke-width:3.2; stroke-opacity:1"/>
<line clip-path="url(#clip490)" x1="1806.05" y1="218.636" x2="1831.65" y2="244.236" style="stroke:#009af9; stroke-width:3.2; stroke-opacity:1"/>
<line clip-path="url(#clip490)" x1="1806.05" y1="218.636" x2="1831.65" y2="193.036" style="stroke:#009af9; stroke-width:3.2; stroke-opacity:1"/>
<path clip-path="url(#clip490)" d="M1914.82 199.897 L1914.82 203.439 L1910.74 203.439 Q1908.45 203.439 1907.55 204.365 Q1906.67 205.291 1906.67 207.698 L1906.67 209.99 L1913.68 209.99 L1913.68 213.3 L1906.67 213.3 L1906.67 235.916 L1902.38 235.916 L1902.38 213.3 L1898.31 213.3 L1898.31 209.99 L1902.38 209.99 L1902.38 208.184 Q1902.38 203.856 1904.4 201.888 Q1906.41 199.897 1910.79 199.897 L1914.82 199.897 Z" fill="#000000" fill-rule="evenodd" fill-opacity="1" /><path clip-path="url(#clip490)" d="M1918.38 209.99 L1922.64 209.99 L1922.64 235.916 L1918.38 235.916 L1918.38 209.99 M1918.38 199.897 L1922.64 199.897 L1922.64 205.291 L1918.38 205.291 L1918.38 199.897 Z" fill="#000000" fill-rule="evenodd" fill-opacity="1" /><path clip-path="url(#clip490)" d="M1953.1 209.99 L1943.73 222.606 L1953.59 235.916 L1948.57 235.916 L1941.02 225.731 L1933.47 235.916 L1928.45 235.916 L1938.52 222.351 L1929.31 209.99 L1934.33 209.99 L1941.2 219.226 L1948.08 209.99 L1953.1 209.99 Z" fill="#000000" fill-rule="evenodd" fill-opacity="1" /><path clip-path="url(#clip490)" d="M1980.32 221.888 L1980.32 223.971 L1960.74 223.971 Q1961.02 228.369 1963.38 230.684 Q1965.76 232.976 1970 232.976 Q1972.45 232.976 1974.75 232.374 Q1977.06 231.772 1979.33 230.569 L1979.33 234.596 Q1977.04 235.568 1974.63 236.078 Q1972.22 236.587 1969.75 236.587 Q1963.54 236.587 1959.91 232.976 Q1956.3 229.365 1956.3 223.207 Q1956.3 216.842 1959.72 213.115 Q1963.17 209.365 1969 209.365 Q1974.24 209.365 1977.27 212.745 Q1980.32 216.101 1980.32 221.888 M1976.06 220.638 Q1976.02 217.143 1974.1 215.059 Q1972.2 212.976 1969.05 212.976 Q1965.49 212.976 1963.33 214.99 Q1961.2 217.004 1960.88 220.661 L1976.06 220.638 Z" fill="#000000" fill-rule="evenodd" fill-opacity="1" /><path clip-path="url(#clip490)" d="M2004.37 213.925 L2004.37 199.897 L2008.63 199.897 L2008.63 235.916 L2004.37 235.916 L2004.37 232.027 Q2003.03 234.342 2000.97 235.476 Q1998.94 236.587 1996.06 236.587 Q1991.37 236.587 1988.4 232.837 Q1985.46 229.087 1985.46 222.976 Q1985.46 216.865 1988.4 213.115 Q1991.37 209.365 1996.06 209.365 Q1998.94 209.365 2000.97 210.499 Q2003.03 211.61 2004.37 213.925 M1989.86 222.976 Q1989.86 227.675 1991.78 230.36 Q1993.73 233.022 1997.11 233.022 Q2000.49 233.022 2002.43 230.36 Q2004.37 227.675 2004.37 222.976 Q2004.37 218.277 2002.43 215.615 Q2000.49 212.93 1997.11 212.93 Q1993.73 212.93 1991.78 215.615 Q1989.86 218.277 1989.86 222.976 Z" fill="#000000" fill-rule="evenodd" fill-opacity="1" /><path clip-path="url(#clip490)" d="M2042.71 199.944 Q2039.61 205.268 2038.1 210.476 Q2036.6 215.684 2036.6 221.032 Q2036.6 226.379 2038.1 231.633 Q2039.63 236.865 2042.71 242.166 L2039 242.166 Q2035.53 236.726 2033.8 231.471 Q2032.08 226.217 2032.08 221.032 Q2032.08 215.87 2033.8 210.638 Q2035.51 205.407 2039 199.944 L2042.71 199.944 Z" fill="#000000" fill-rule="evenodd" fill-opacity="1" /><path clip-path="url(#clip490)" d="M2066.09 223.856 L2065.07 218.508 Q2064.03 213.022 2059.91 213.022 Q2056.81 213.022 2055.39 215.569 Q2053.61 218.763 2053.61 222.976 Q2053.61 228.069 2055.35 230.499 Q2057.11 232.976 2059.91 232.976 Q2063.01 232.976 2064.68 228.045 L2066.09 223.856 M2068.47 216.772 L2070.76 209.99 L2074.56 209.99 L2069.81 224.041 L2070.74 229.11 Q2070.95 230.244 2071.76 231.194 Q2072.71 232.305 2073.45 232.305 L2075.49 232.305 L2075.49 235.916 L2072.94 235.916 Q2070.76 235.916 2068.82 233.971 Q2067.87 232.999 2067.48 230.962 Q2066.41 233.531 2064.24 235.545 Q2063.22 236.494 2059.91 236.494 Q2054.47 236.494 2051.83 232.976 Q2049.12 229.342 2049.12 222.976 Q2049.12 216.17 2052.06 212.976 Q2055.32 209.411 2059.91 209.411 Q2067.11 209.411 2068.47 216.772 Z" fill="#000000" fill-rule="evenodd" fill-opacity="1" /><path clip-path="url(#clip490)" d="M2097.85 214.388 L2127.52 214.388 L2127.52 218.277 L2097.85 218.277 L2097.85 214.388 M2097.85 223.832 L2127.52 223.832 L2127.52 227.768 L2097.85 227.768 L2097.85 223.832 Z" fill="#000000" fill-rule="evenodd" fill-opacity="1" /><path clip-path="url(#clip490)" d="M2162.68 204.434 Q2159.07 204.434 2157.24 207.999 Q2155.44 211.541 2155.44 218.67 Q2155.44 225.777 2157.24 229.342 Q2159.07 232.883 2162.68 232.883 Q2166.32 232.883 2168.12 229.342 Q2169.95 225.777 2169.95 218.67 Q2169.95 211.541 2168.12 207.999 Q2166.32 204.434 2162.68 204.434 M2162.68 200.731 Q2168.49 200.731 2171.55 205.337 Q2174.63 209.92 2174.63 218.67 Q2174.63 227.397 2171.55 232.004 Q2168.49 236.587 2162.68 236.587 Q2156.87 236.587 2153.8 232.004 Q2150.74 227.397 2150.74 218.67 Q2150.74 209.92 2153.8 205.337 Q2156.87 200.731 2162.68 200.731 Z" fill="#000000" fill-rule="evenodd" fill-opacity="1" /><path clip-path="url(#clip490)" d="M2182.85 230.036 L2187.73 230.036 L2187.73 235.916 L2182.85 235.916 L2182.85 230.036 Z" fill="#000000" fill-rule="evenodd" fill-opacity="1" /><path clip-path="url(#clip490)" d="M2201.94 231.981 L2218.26 231.981 L2218.26 235.916 L2196.32 235.916 L2196.32 231.981 Q2198.98 229.226 2203.56 224.596 Q2208.17 219.944 2209.35 218.601 Q2211.6 216.078 2212.48 214.342 Q2213.38 212.583 2213.38 210.893 Q2213.38 208.138 2211.43 206.402 Q2209.51 204.666 2206.41 204.666 Q2204.21 204.666 2201.76 205.43 Q2199.33 206.194 2196.55 207.745 L2196.55 203.022 Q2199.37 201.888 2201.83 201.309 Q2204.28 200.731 2206.32 200.731 Q2211.69 200.731 2214.88 203.416 Q2218.08 206.101 2218.08 210.592 Q2218.08 212.721 2217.27 214.643 Q2216.48 216.541 2214.37 219.133 Q2213.8 219.805 2210.69 223.022 Q2207.59 226.217 2201.94 231.981 Z" fill="#000000" fill-rule="evenodd" fill-opacity="1" /><path clip-path="url(#clip490)" d="M2226.8 199.944 L2230.51 199.944 Q2233.98 205.407 2235.69 210.638 Q2237.43 215.87 2237.43 221.032 Q2237.43 226.217 2235.69 231.471 Q2233.98 236.726 2230.51 242.166 L2226.8 242.166 Q2229.88 236.865 2231.39 231.633 Q2232.92 226.379 2232.92 221.032 Q2232.92 215.684 2231.39 210.476 Q2229.88 205.268 2226.8 199.944 Z" fill="#000000" fill-rule="evenodd" fill-opacity="1" /></svg>
